<?xml version="1.0" encoding="UTF-8" standalone="no"?>
<!-- Created with Inkscape (http://www.inkscape.org/) -->

<svg
   xmlns:dc="http://purl.org/dc/elements/1.1/"
   xmlns:cc="http://creativecommons.org/ns#"
   xmlns:rdf="http://www.w3.org/1999/02/22-rdf-syntax-ns#"
   xmlns:svg="http://www.w3.org/2000/svg"
   xmlns="http://www.w3.org/2000/svg"
   xmlns:sodipodi="http://sodipodi.sourceforge.net/DTD/sodipodi-0.dtd"
   xmlns:inkscape="http://www.inkscape.org/namespaces/inkscape"
   width="210mm"
   height="297mm"
   viewBox="0 0 210 297"
   version="1.1"
   id="svg8"
   inkscape:version="0.92.2 (unknown)"
   sodipodi:docname="next_cell.svg">
  <defs
     id="defs2">
    <clipPath
       id="clipPath873"
       clipPathUnits="userSpaceOnUse">
      <path
         inkscape:connector-curvature="0"
         id="path871"
         d="m 3.836,184.769 h 163.98 c 2.125,0 3.836,-1.711 3.836,-3.836 V 3.835 c 0,-2.125 -1.711,-3.836 -3.836,-3.836 H 3.836 C 1.711,-0.001 0,1.71 0,3.835 v 177.098 c 0,2.125 1.711,3.836 3.836,3.836 z" />
    </clipPath>
    <clipPath
       id="clipPath883"
       clipPathUnits="userSpaceOnUse">
      <path
         inkscape:connector-curvature="0"
         id="path881"
         d="M 0,0 H 167 V 185 H 0 Z" />
    </clipPath>
    <clipPath
       id="clipPath893"
       clipPathUnits="userSpaceOnUse">
      <path
         inkscape:connector-curvature="0"
         id="path891"
         d="M 0,185 H 166.539 V 0 H 0 Z" />
    </clipPath>
    <clipPath
       id="clipPath903"
       clipPathUnits="userSpaceOnUse">
      <path
         inkscape:connector-curvature="0"
         id="path901"
         d="M 0,0 H 167 V 185 H 0 Z" />
    </clipPath>
    <clipPath
       id="clipPath913"
       clipPathUnits="userSpaceOnUse">
      <path
         inkscape:connector-curvature="0"
         id="path911"
         d="M 0,185 H 166.539 V 0 H 0 Z" />
    </clipPath>
    <clipPath
       id="clipPath923"
       clipPathUnits="userSpaceOnUse">
      <path
         inkscape:connector-curvature="0"
         id="path921"
         d="M 0,1 H 167 V 181 H 0 Z" />
    </clipPath>
    <clipPath
       id="clipPath933"
       clipPathUnits="userSpaceOnUse">
      <path
         inkscape:connector-curvature="0"
         id="path931"
         d="m 0,180.594 h 166.539 v -179 H 0 Z" />
    </clipPath>
    <clipPath
       id="clipPath943"
       clipPathUnits="userSpaceOnUse">
      <path
         inkscape:connector-curvature="0"
         id="path941"
         d="M 0,2 H 167 V 181 H 0 Z" />
    </clipPath>
  </defs>
  <sodipodi:namedview
     id="base"
     pagecolor="#ffffff"
     bordercolor="#666666"
     borderopacity="1.0"
     inkscape:pageopacity="0.0"
     inkscape:pageshadow="2"
     inkscape:zoom="4.0000001"
     inkscape:cx="409.43608"
     inkscape:cy="826.73063"
     inkscape:document-units="mm"
     inkscape:current-layer="layer1"
     showgrid="false"
     inkscape:window-width="1920"
     inkscape:window-height="1056"
     inkscape:window-x="0"
     inkscape:window-y="24"
     inkscape:window-maximized="1"
     inkscape:snap-object-midpoints="true" />
  <metadata
     id="metadata5">
    <rdf:RDF>
      <cc:Work
         rdf:about="">
        <dc:format>image/svg+xml</dc:format>
        <dc:type
           rdf:resource="http://purl.org/dc/dcmitype/StillImage" />
        <dc:title />
      </cc:Work>
    </rdf:RDF>
  </metadata>
  <g
     inkscape:label="Layer 1"
     inkscape:groupmode="layer"
     id="layer1">
    <path
       style="opacity:1;fill:#828282;fill-opacity:1;fill-rule:evenodd;stroke:none;stroke-width:0.00588596;stroke-linecap:butt;stroke-linejoin:miter;stroke-miterlimit:4;stroke-dasharray:none;stroke-dashoffset:0;stroke-opacity:1;paint-order:stroke fill markers"
       id="path834"
       sodipodi:type="arc"
       sodipodi:cx="-105.02815"
       sodipodi:cy="-31.460791"
       sodipodi:rx="0.85000002"
       sodipodi:ry="0.84999996"
       sodipodi:start="0"
       sodipodi:end="6.2807942"
       sodipodi:open="true"
       d="m -104.17815,-31.460791 a 0.85000002,0.84999996 0 0 1 -0.84949,0.85 0.85000002,0.84999996 0 0 1 -0.85051,-0.848983 0.85000002,0.84999996 0 0 1 0.84847,-0.851015 0.85000002,0.84999996 0 0 1 0.85153,0.847966"
       transform="rotate(-150)" />
    <path
       style="opacity:1;fill:#828282;fill-opacity:1;fill-rule:evenodd;stroke:none;stroke-width:0.00588596;stroke-linecap:butt;stroke-linejoin:miter;stroke-miterlimit:4;stroke-dasharray:none;stroke-dashoffset:0;stroke-opacity:1;paint-order:stroke fill markers"
       id="path834-6"
       sodipodi:type="arc"
       sodipodi:cx="-156.00482"
       sodipodi:cy="-9.627243"
       sodipodi:rx="0.85000002"
       sodipodi:ry="0.8499999"
       sodipodi:start="0"
       sodipodi:end="6.2807942"
       sodipodi:open="true"
       d="m -155.15482,-9.627243 a 0.85000002,0.8499999 0 0 1 -0.84949,0.8499997 0.85000002,0.8499999 0 0 1 -0.85051,-0.8489835 0.85000002,0.8499999 0 0 1 0.84847,-0.8510152 0.85000002,0.8499999 0 0 1 0.85153,0.8479665"
       transform="rotate(-150)" />
    <path
       style="opacity:1;fill:#828282;fill-opacity:1;fill-rule:evenodd;stroke:none;stroke-width:0.00588596;stroke-linecap:butt;stroke-linejoin:miter;stroke-miterlimit:4;stroke-dasharray:none;stroke-dashoffset:0;stroke-opacity:1;paint-order:stroke fill markers"
       id="path834-5"
       sodipodi:type="arc"
       sodipodi:cx="-145.61322"
       sodipodi:cy="4.2531271"
       sodipodi:rx="0.85000002"
       sodipodi:ry="0.8499999"
       sodipodi:start="0"
       sodipodi:end="6.2807942"
       sodipodi:open="true"
       d="m -144.76322,4.2531271 a 0.85000002,0.8499999 0 0 1 -0.84949,0.8499998 0.85000002,0.8499999 0 0 1 -0.85051,-0.8489836 0.85000002,0.8499999 0 0 1 0.84848,-0.8510147 0.85000002,0.8499999 0 0 1 0.85152,0.8479661"
       transform="rotate(-150)" />
    <path
       style="opacity:1;fill:#828282;fill-opacity:1;fill-rule:evenodd;stroke:none;stroke-width:0.00588596;stroke-linecap:butt;stroke-linejoin:miter;stroke-miterlimit:4;stroke-dasharray:none;stroke-dashoffset:0;stroke-opacity:1;paint-order:stroke fill markers"
       id="path834-3-3"
       sodipodi:type="arc"
       sodipodi:cx="-130.13959"
       sodipodi:cy="-9.1046896"
       sodipodi:rx="0.85000008"
       sodipodi:ry="0.84999985"
       sodipodi:start="0"
       sodipodi:end="6.2807942"
       sodipodi:open="true"
       d="m -129.28959,-9.1046896 a 0.85000008,0.84999985 0 0 1 -0.84949,0.8499997 0.85000008,0.84999985 0 0 1 -0.85051,-0.8489835 0.85000008,0.84999985 0 0 1 0.84848,-0.8510147 0.85000008,0.84999985 0 0 1 0.85152,0.8479661"
       transform="rotate(-150)" />
    <path
       style="opacity:1;fill:#828282;fill-opacity:1;fill-rule:evenodd;stroke:none;stroke-width:0.00588596;stroke-linecap:butt;stroke-linejoin:miter;stroke-miterlimit:4;stroke-dasharray:none;stroke-dashoffset:0;stroke-opacity:1;paint-order:stroke fill markers"
       id="path834-6-2"
       sodipodi:type="arc"
       sodipodi:cx="-161.6494"
       sodipodi:cy="-15.369315"
       sodipodi:rx="0.8500002"
       sodipodi:ry="0.84999996"
       sodipodi:start="0"
       sodipodi:end="6.2807942"
       sodipodi:open="true"
       d="m -160.7994,-15.369315 a 0.8500002,0.84999996 0 0 1 -0.84949,0.85 0.8500002,0.84999996 0 0 1 -0.85051,-0.848984 0.8500002,0.84999996 0 0 1 0.84848,-0.851015 0.8500002,0.84999996 0 0 1 0.85152,0.847966"
       transform="rotate(-150)" />
    <path
       style="opacity:1;fill:#828282;fill-opacity:1;fill-rule:evenodd;stroke:none;stroke-width:0.00588596;stroke-linecap:butt;stroke-linejoin:miter;stroke-miterlimit:4;stroke-dasharray:none;stroke-dashoffset:0;stroke-opacity:1;paint-order:stroke fill markers"
       id="path834-2"
       sodipodi:type="arc"
       sodipodi:cx="-153.1537"
       sodipodi:cy="2.7864027"
       sodipodi:rx="0.85000002"
       sodipodi:ry="0.8499999"
       sodipodi:start="0"
       sodipodi:end="6.2807942"
       sodipodi:open="true"
       d="m -152.3037,2.7864027 a 0.85000002,0.8499999 0 0 1 -0.84949,0.8499998 0.85000002,0.8499999 0 0 1 -0.85051,-0.8489836 0.85000002,0.8499999 0 0 1 0.84847,-0.8510147 0.85000002,0.8499999 0 0 1 0.85153,0.8479661"
       transform="rotate(-150)" />
    <path
       style="opacity:1;fill:#0573ff;fill-opacity:1;fill-rule:evenodd;stroke:#000000;stroke-width:0.27436206;stroke-linecap:butt;stroke-linejoin:miter;stroke-miterlimit:4;stroke-dasharray:none;stroke-dashoffset:0;stroke-opacity:1;paint-order:fill markers stroke"
       id="path834-3-70"
       sodipodi:type="arc"
       sodipodi:cx="-142.50284"
       sodipodi:cy="-13.221726"
       sodipodi:rx="0.71334153"
       sodipodi:ry="0.71334136"
       sodipodi:start="0"
       sodipodi:end="6.2807942"
       sodipodi:open="true"
       d="m -141.7895,-13.221726 a 0.71334153,0.71334136 0 0 1 -0.71291,0.713341 0.71334153,0.71334136 0 0 1 -0.71377,-0.712489 0.71334153,0.71334136 0 0 1 0.71206,-0.714193 0.71334153,0.71334136 0 0 1 0.71462,0.711635"
       transform="rotate(-150)" />
    <path
       style="opacity:1;fill:#828282;fill-opacity:1;fill-rule:evenodd;stroke:none;stroke-width:0.00588596;stroke-linecap:butt;stroke-linejoin:miter;stroke-miterlimit:4;stroke-dasharray:none;stroke-dashoffset:0;stroke-opacity:1;paint-order:stroke fill markers"
       id="path834-6-5-6"
       sodipodi:type="arc"
       sodipodi:cx="-147.85672"
       sodipodi:cy="-25.016472"
       sodipodi:rx="0.8500002"
       sodipodi:ry="0.84999996"
       sodipodi:start="0"
       sodipodi:end="6.2807942"
       sodipodi:open="true"
       d="m -147.00672,-25.016472 a 0.8500002,0.84999996 0 0 1 -0.84949,0.85 0.8500002,0.84999996 0 0 1 -0.85051,-0.848984 0.8500002,0.84999996 0 0 1 0.84848,-0.851014 0.8500002,0.84999996 0 0 1 0.85152,0.847966"
       transform="rotate(-150)" />
    <path
       style="opacity:1;fill:#828282;fill-opacity:1;fill-rule:evenodd;stroke:none;stroke-width:0.00588596;stroke-linecap:butt;stroke-linejoin:miter;stroke-miterlimit:4;stroke-dasharray:none;stroke-dashoffset:0;stroke-opacity:1;paint-order:stroke fill markers"
       id="path834-3-7-6-2"
       sodipodi:type="arc"
       sodipodi:cx="-163.55325"
       sodipodi:cy="-7.9839706"
       sodipodi:rx="0.85000008"
       sodipodi:ry="0.84999985"
       sodipodi:start="0"
       sodipodi:end="6.2807942"
       sodipodi:open="true"
       d="m -162.70325,-7.9839706 a 0.85000008,0.84999985 0 0 1 -0.8495,0.8499997 0.85000008,0.84999985 0 0 1 -0.8505,-0.8489835 0.85000008,0.84999985 0 0 1 0.84847,-0.8510147 0.85000008,0.84999985 0 0 1 0.85152,0.847966"
       transform="rotate(-150)" />
    <path
       style="opacity:1;fill:#828282;fill-opacity:1;fill-rule:evenodd;stroke:#ff5555;stroke-width:0.27436161;stroke-linecap:butt;stroke-linejoin:miter;stroke-miterlimit:0;stroke-dasharray:none;stroke-dashoffset:0;stroke-opacity:1;paint-order:fill markers stroke"
       id="path834-3-3-1-8"
       sodipodi:type="arc"
       sodipodi:cx="-140.0845"
       sodipodi:cy="-5.2864456"
       sodipodi:rx="0.71334034"
       sodipodi:ry="0.71334016"
       sodipodi:start="0"
       sodipodi:end="6.2807942"
       sodipodi:open="true"
       d="m -139.37116,-5.2864456 a 0.71334034,0.71334016 0 0 1 -0.71292,0.71334 0.71334034,0.71334016 0 0 1 -0.71376,-0.7124872 0.71334034,0.71334016 0 0 1 0.71206,-0.7141918 0.71334034,0.71334016 0 0 1 0.71462,0.7116333"
       transform="rotate(-150)" />
    <path
       style="opacity:1;fill:#828282;fill-opacity:1;fill-rule:evenodd;stroke:none;stroke-width:0.00588596;stroke-linecap:butt;stroke-linejoin:miter;stroke-miterlimit:4;stroke-dasharray:none;stroke-dashoffset:0;stroke-opacity:1;paint-order:stroke fill markers"
       id="path834-3-7-2"
       sodipodi:type="arc"
       sodipodi:cx="30.385262"
       sodipodi:cy="112.69076"
       sodipodi:rx="0.8500002"
       sodipodi:ry="0.84999996"
       sodipodi:start="0"
       sodipodi:end="6.2807942"
       sodipodi:open="true"
       d="m 31.235262,112.69076 a 0.8500002,0.84999996 0 0 1 -0.849492,0.85 0.8500002,0.84999996 0 0 1 -0.850508,-0.84899 0.8500002,0.84999996 0 0 1 0.848475,-0.85101 0.8500002,0.84999996 0 0 1 0.851522,0.84797"
       transform="matrix(-0.5,0.8660254,0.8660254,0.5,0,0)" />
    <path
       style="opacity:1;fill:#828282;fill-opacity:1;fill-rule:evenodd;stroke:none;stroke-width:0.00588596;stroke-linecap:butt;stroke-linejoin:miter;stroke-miterlimit:4;stroke-dasharray:none;stroke-dashoffset:0;stroke-opacity:1;paint-order:stroke fill markers"
       id="path834-5-3"
       sodipodi:type="arc"
       sodipodi:cx="35.609695"
       sodipodi:cy="129.4344"
       sodipodi:rx="0.85000008"
       sodipodi:ry="0.84999985"
       sodipodi:start="0"
       sodipodi:end="6.2807942"
       sodipodi:open="true"
       d="m 36.459696,129.4344 a 0.85000008,0.84999985 0 0 1 -0.849492,0.85 0.85000008,0.84999985 0 0 1 -0.850508,-0.84898 0.85000008,0.84999985 0 0 1 0.848475,-0.85102 0.85000008,0.84999985 0 0 1 0.851522,0.84797"
       transform="matrix(-0.5,0.8660254,0.8660254,0.5,0,0)" />
    <path
       style="opacity:1;fill:#828282;fill-opacity:1;fill-rule:evenodd;stroke:none;stroke-width:0.00588596;stroke-linecap:butt;stroke-linejoin:miter;stroke-miterlimit:4;stroke-dasharray:none;stroke-dashoffset:0;stroke-opacity:1;paint-order:stroke fill markers"
       id="path834-3-3-7"
       sodipodi:type="arc"
       sodipodi:cx="16.767876"
       sodipodi:cy="122.93661"
       sodipodi:rx="0.8500002"
       sodipodi:ry="0.84999996"
       sodipodi:start="0"
       sodipodi:end="6.2807942"
       sodipodi:open="true"
       d="m 17.617876,122.93661 a 0.8500002,0.84999996 0 0 1 -0.849492,0.85 0.8500002,0.84999996 0 0 1 -0.850508,-0.84899 0.8500002,0.84999996 0 0 1 0.848475,-0.85101 0.8500002,0.84999996 0 0 1 0.851522,0.84796"
       transform="matrix(-0.5,0.8660254,0.8660254,0.5,0,0)" />
    <path
       style="opacity:1;fill:#0573ff;fill-opacity:1;fill-rule:evenodd;stroke:none;stroke-width:0.00588596;stroke-linecap:butt;stroke-linejoin:miter;stroke-miterlimit:4;stroke-dasharray:none;stroke-dashoffset:0;stroke-opacity:1;paint-order:stroke fill markers"
       id="path834-6-5-5"
       sodipodi:type="arc"
       sodipodi:cx="29.378164"
       sodipodi:cy="134.80046"
       sodipodi:rx="0.8500002"
       sodipodi:ry="0.84999996"
       sodipodi:start="0"
       sodipodi:end="6.2807942"
       sodipodi:open="true"
       d="m 30.228164,134.80046 a 0.8500002,0.84999996 0 0 1 -0.849492,0.85 0.8500002,0.84999996 0 0 1 -0.850507,-0.84898 0.8500002,0.84999996 0 0 1 0.848475,-0.85102 0.8500002,0.84999996 0 0 1 0.851522,0.84797"
       transform="matrix(-0.5,0.8660254,0.8660254,0.5,0,0)" />
    <path
       style="opacity:1;fill:#828282;fill-opacity:1;fill-rule:evenodd;stroke:none;stroke-width:0.00588596;stroke-linecap:butt;stroke-linejoin:miter;stroke-miterlimit:4;stroke-dasharray:none;stroke-dashoffset:0;stroke-opacity:1;paint-order:stroke fill markers"
       id="path834-2-7"
       sodipodi:type="arc"
       sodipodi:cx="22.27598"
       sodipodi:cy="101.76676"
       sodipodi:rx="0.8500002"
       sodipodi:ry="0.84999996"
       sodipodi:start="0"
       sodipodi:end="6.2807942"
       sodipodi:open="true"
       d="m 23.12598,101.76676 a 0.8500002,0.84999996 0 0 1 -0.849492,0.85 0.8500002,0.84999996 0 0 1 -0.850508,-0.84898 0.8500002,0.84999996 0 0 1 0.848476,-0.85102 0.8500002,0.84999996 0 0 1 0.851522,0.84797"
       transform="matrix(-0.5,0.8660254,0.8660254,0.5,0,0)" />
    <path
       style="opacity:1;fill:#828282;fill-opacity:1;fill-rule:evenodd;stroke:none;stroke-width:0.00588596;stroke-linecap:butt;stroke-linejoin:miter;stroke-miterlimit:4;stroke-dasharray:none;stroke-dashoffset:0;stroke-opacity:1;paint-order:stroke fill markers"
       id="path834-3-70-3"
       sodipodi:type="arc"
       sodipodi:cx="9.4873018"
       sodipodi:cy="120.5435"
       sodipodi:rx="0.8500002"
       sodipodi:ry="0.84999996"
       sodipodi:start="0"
       sodipodi:end="6.2807942"
       sodipodi:open="true"
       d="m 10.337302,120.5435 a 0.8500002,0.84999996 0 0 1 -0.8494921,0.85 0.8500002,0.84999996 0 0 1 -0.8505077,-0.84898 0.8500002,0.84999996 0 0 1 0.8484753,-0.85102 0.8500002,0.84999996 0 0 1 0.8515225,0.84797"
       transform="matrix(-0.5,0.8660254,0.8660254,0.5,0,0)" />
    <path
       style="opacity:1;fill:#000000;fill-opacity:1;fill-rule:evenodd;stroke:none;stroke-width:0.00588596;stroke-linecap:butt;stroke-linejoin:miter;stroke-miterlimit:4;stroke-dasharray:none;stroke-dashoffset:0;stroke-opacity:1;paint-order:stroke fill markers"
       id="path834-6-9-6"
       sodipodi:type="arc"
       sodipodi:cx="41.472763"
       sodipodi:cy="109.71673"
       sodipodi:rx="0.8500002"
       sodipodi:ry="0.84999996"
       sodipodi:start="0"
       sodipodi:end="6.2807942"
       sodipodi:open="true"
       d="m 42.322763,109.71673 a 0.8500002,0.84999996 0 0 1 -0.849492,0.85 0.8500002,0.84999996 0 0 1 -0.850508,-0.84899 0.8500002,0.84999996 0 0 1 0.848476,-0.85101 0.8500002,0.84999996 0 0 1 0.851522,0.84797"
       transform="matrix(-0.5,0.8660254,0.8660254,0.5,0,0)" />
    <path
       style="opacity:1;fill:#828282;fill-opacity:1;fill-rule:evenodd;stroke:none;stroke-width:0.00588596;stroke-linecap:butt;stroke-linejoin:miter;stroke-miterlimit:4;stroke-dasharray:none;stroke-dashoffset:0;stroke-opacity:1;paint-order:stroke fill markers"
       id="path834-3-7-3-1"
       sodipodi:type="arc"
       sodipodi:cx="-0.13119924"
       sodipodi:cy="135.96233"
       sodipodi:rx="0.8500002"
       sodipodi:ry="0.84999996"
       sodipodi:start="0"
       sodipodi:end="6.2807942"
       sodipodi:open="true"
       d="m 0.71880096,135.96233 a 0.8500002,0.84999996 0 0 1 -0.84949209,0.85 0.8500002,0.84999996 0 0 1 -0.85050771,-0.84899 0.8500002,0.84999996 0 0 1 0.84847527,-0.85101 0.8500002,0.84999996 0 0 1 0.8515221,0.84796"
       transform="matrix(-0.5,0.8660254,0.8660254,0.5,0,0)" />
    <path
       style="opacity:1;fill:#828282;fill-opacity:1;fill-rule:evenodd;stroke:none;stroke-width:0.00588596;stroke-linecap:butt;stroke-linejoin:miter;stroke-miterlimit:4;stroke-dasharray:none;stroke-dashoffset:0;stroke-opacity:1;paint-order:stroke fill markers"
       id="path834-3-3-0-9"
       sodipodi:type="arc"
       sodipodi:cx="-0.2357735"
       sodipodi:cy="163.19739"
       sodipodi:rx="0.8500002"
       sodipodi:ry="0.84999996"
       sodipodi:start="0"
       sodipodi:end="6.2807942"
       sodipodi:open="true"
       d="m 0.6142267,163.19739 a 0.8500002,0.84999996 0 0 1 -0.84949209,0.85 0.8500002,0.84999996 0 0 1 -0.85050771,-0.84899 0.8500002,0.84999996 0 0 1 0.84847527,-0.85101 0.8500002,0.84999996 0 0 1 0.8515221,0.84797"
       transform="matrix(-0.5,0.8660254,0.8660254,0.5,0,0)" />
    <path
       style="opacity:1;fill:#0573ff;fill-opacity:1;fill-rule:evenodd;stroke:none;stroke-width:0.65384603;stroke-linecap:butt;stroke-linejoin:miter;stroke-miterlimit:4;stroke-dasharray:none;stroke-dashoffset:0;stroke-opacity:1;paint-order:stroke fill markers"
       id="path834-6-5-6-3"
       sodipodi:type="arc"
       sodipodi:cx="34.621693"
       sodipodi:cy="122.97161"
       sodipodi:rx="0.85000008"
       sodipodi:ry="0.84999985"
       sodipodi:start="0"
       sodipodi:end="6.2807942"
       sodipodi:open="true"
       d="m 35.471693,122.97161 a 0.85000008,0.84999985 0 0 1 -0.849492,0.85 0.85000008,0.84999985 0 0 1 -0.850508,-0.84898 0.85000008,0.84999985 0 0 1 0.848475,-0.85102 0.85000008,0.84999985 0 0 1 0.851522,0.84797"
       transform="matrix(-0.5,0.8660254,0.8660254,0.5,0,0)" />
    <path
       style="opacity:1;fill:#828282;fill-opacity:1;fill-rule:evenodd;stroke:none;stroke-width:0.00588596;stroke-linecap:butt;stroke-linejoin:miter;stroke-miterlimit:4;stroke-dasharray:none;stroke-dashoffset:0;stroke-opacity:1;paint-order:stroke fill markers"
       id="path834-3-7-9-1-4"
       sodipodi:type="arc"
       sodipodi:cx="19.090136"
       sodipodi:cy="112.67121"
       sodipodi:rx="0.8500002"
       sodipodi:ry="0.84999996"
       sodipodi:start="0"
       sodipodi:end="6.2807942"
       sodipodi:open="true"
       d="m 19.940136,112.67121 a 0.8500002,0.84999996 0 0 1 -0.849492,0.85 0.8500002,0.84999996 0 0 1 -0.850508,-0.84898 0.8500002,0.84999996 0 0 1 0.848475,-0.85102 0.8500002,0.84999996 0 0 1 0.851522,0.84797"
       transform="matrix(-0.5,0.8660254,0.8660254,0.5,0,0)" />
    <path
       style="opacity:1;fill:#828282;fill-opacity:1;fill-rule:evenodd;stroke:none;stroke-width:0.00588596;stroke-linecap:butt;stroke-linejoin:miter;stroke-miterlimit:4;stroke-dasharray:none;stroke-dashoffset:0;stroke-opacity:1;paint-order:stroke fill markers"
       id="path834-3-3-1-8-7"
       sodipodi:type="arc"
       sodipodi:cx="-9.4646473"
       sodipodi:cy="150.83632"
       sodipodi:rx="0.8500002"
       sodipodi:ry="0.84999996"
       sodipodi:start="0"
       sodipodi:end="6.2807942"
       sodipodi:open="true"
       d="m -8.6146471,150.83632 a 0.8500002,0.84999996 0 0 1 -0.8494921,0.85 0.8500002,0.84999996 0 0 1 -0.8505078,-0.84898 0.8500002,0.84999996 0 0 1 0.8484754,-0.85102 0.8500002,0.84999996 0 0 1 0.8515221,0.84797"
       transform="matrix(-0.5,0.8660254,0.8660254,0.5,0,0)" />
    <path
       style="fill:none;stroke:#aaaaaa;stroke-width:0.21;stroke-linecap:round;stroke-linejoin:miter;stroke-miterlimit:4;stroke-dasharray:none;stroke-opacity:1"
       d="M 74.281094,90.774831 142.76231,73.885935"
       id="path6038"
       inkscape:connector-curvature="0" />
    <path
       style="opacity:1;fill:#0573ff;fill-opacity:0.27843137;fill-rule:evenodd;stroke:none;stroke-width:0.13076921;stroke-linecap:butt;stroke-linejoin:miter;stroke-miterlimit:4;stroke-dasharray:none;stroke-dashoffset:0;stroke-opacity:1;paint-order:stroke fill markers"
       id="path834-6-5-6-3-8"
       sodipodi:type="arc"
       sodipodi:cx="31.661665"
       sodipodi:cy="120.04465"
       sodipodi:rx="0.85000008"
       sodipodi:ry="0.84999985"
       sodipodi:start="0"
       sodipodi:end="6.2807942"
       sodipodi:open="true"
       d="m 32.511665,120.04465 a 0.85000008,0.84999985 0 0 1 -0.849492,0.85 0.85000008,0.84999985 0 0 1 -0.850508,-0.84899 0.85000008,0.84999985 0 0 1 0.848476,-0.85101 0.85000008,0.84999985 0 0 1 0.851522,0.84796"
       transform="matrix(-0.5,0.8660254,0.8660254,0.5,0,0)" />
    <path
       style="opacity:1;fill:#0573ff;fill-opacity:0.35294118;fill-rule:evenodd;stroke:none;stroke-width:0.13076922;stroke-linecap:butt;stroke-linejoin:miter;stroke-miterlimit:4;stroke-dasharray:none;stroke-dashoffset:0;stroke-opacity:1;paint-order:stroke fill markers"
       id="path834-6-5-6-3-8-4"
       sodipodi:type="arc"
       sodipodi:cx="23.263432"
       sodipodi:cy="128.75406"
       sodipodi:rx="0.8500002"
       sodipodi:ry="0.84999996"
       sodipodi:start="0"
       sodipodi:end="6.2807942"
       sodipodi:open="true"
       d="m 24.113432,128.75406 a 0.8500002,0.84999996 0 0 1 -0.849492,0.85 0.8500002,0.84999996 0 0 1 -0.850508,-0.84898 0.8500002,0.84999996 0 0 1 0.848475,-0.85102 0.8500002,0.84999996 0 0 1 0.851522,0.84797"
       transform="matrix(-0.5,0.8660254,0.8660254,0.5,0,0)" />
    <path
       style="opacity:1;fill:#0573ff;fill-opacity:0.35294118;fill-rule:evenodd;stroke:none;stroke-width:0.13076921;stroke-linecap:butt;stroke-linejoin:miter;stroke-miterlimit:4;stroke-dasharray:none;stroke-dashoffset:0;stroke-opacity:1;paint-order:stroke fill markers"
       id="path834-6-5-6-3-8-4-5"
       sodipodi:type="arc"
       sodipodi:cx="18.773911"
       sodipodi:cy="133.41953"
       sodipodi:rx="0.85000008"
       sodipodi:ry="0.84999985"
       sodipodi:start="0"
       sodipodi:end="6.2807942"
       sodipodi:open="true"
       d="m 19.623911,133.41953 a 0.85000008,0.84999985 0 0 1 -0.849492,0.84999 0.85000008,0.84999985 0 0 1 -0.850508,-0.84898 0.85000008,0.84999985 0 0 1 0.848475,-0.85101 0.85000008,0.84999985 0 0 1 0.851522,0.84796"
       transform="matrix(-0.5,0.8660254,0.8660254,0.5,0,0)" />
    <path
       style="opacity:1;fill:#0573ff;fill-opacity:0.35294118;fill-rule:evenodd;stroke:none;stroke-width:0.13076922;stroke-linecap:butt;stroke-linejoin:miter;stroke-miterlimit:4;stroke-dasharray:none;stroke-dashoffset:0;stroke-opacity:1;paint-order:stroke fill markers"
       id="path834-6-5-6-3-8-4-5-7"
       sodipodi:type="arc"
       sodipodi:cx="11.515545"
       sodipodi:cy="140.81573"
       sodipodi:rx="0.8500002"
       sodipodi:ry="0.84999996"
       sodipodi:start="0"
       sodipodi:end="6.2807942"
       sodipodi:open="true"
       d="m 12.365545,140.81573 a 0.8500002,0.84999996 0 0 1 -0.849492,0.85 0.8500002,0.84999996 0 0 1 -0.850508,-0.84898 0.8500002,0.84999996 0 0 1 0.848476,-0.85101 0.8500002,0.84999996 0 0 1 0.851522,0.84796"
       transform="matrix(-0.5,0.8660254,0.8660254,0.5,0,0)" />
    <path
       style="opacity:1;fill:#0573ff;fill-opacity:1;fill-rule:evenodd;stroke:#ff5555;stroke-width:0.27436206;stroke-linecap:butt;stroke-linejoin:miter;stroke-miterlimit:4;stroke-dasharray:none;stroke-dashoffset:0;stroke-opacity:1;paint-order:fill markers stroke"
       id="path834-7"
       sodipodi:type="arc"
       sodipodi:cx="-131.44284"
       sodipodi:cy="-16.774912"
       sodipodi:rx="0.71334147"
       sodipodi:ry="0.71334136"
       sodipodi:start="0"
       sodipodi:end="6.2807942"
       sodipodi:open="true"
       d="m -130.7295,-16.774912 a 0.71334147,0.71334136 0 0 1 -0.71291,0.713341 0.71334147,0.71334136 0 0 1 -0.71377,-0.712488 0.71334147,0.71334136 0 0 1 0.71206,-0.714193 0.71334147,0.71334136 0 0 1 0.71462,0.711634"
       transform="rotate(-150)" />
    <path
       style="opacity:1;fill:#828282;fill-opacity:1;fill-rule:evenodd;stroke:#ff5555;stroke-width:0.27436161;stroke-linecap:butt;stroke-linejoin:miter;stroke-miterlimit:0;stroke-dasharray:none;stroke-dashoffset:0;stroke-opacity:1;paint-order:fill markers stroke"
       id="path834-3-3-1-8-1"
       sodipodi:type="arc"
       sodipodi:cx="-148.86226"
       sodipodi:cy="-6.8861618"
       sodipodi:rx="0.71334034"
       sodipodi:ry="0.71334016"
       sodipodi:start="0"
       sodipodi:end="6.2807942"
       sodipodi:open="true"
       d="m -148.14892,-6.8861618 a 0.71334034,0.71334016 0 0 1 -0.71291,0.71334 0.71334034,0.71334016 0 0 1 -0.71377,-0.7124872 0.71334034,0.71334016 0 0 1 0.71206,-0.7141918 0.71334034,0.71334016 0 0 1 0.71462,0.7116333"
       transform="rotate(-150)"
       inkscape:transform-center-x="4.6072877"
       inkscape:transform-center-y="-6.6834453" />
    <path
       style="opacity:1;fill:#828282;fill-opacity:1;fill-rule:evenodd;stroke:#ff5555;stroke-width:0.27436206;stroke-linecap:butt;stroke-linejoin:miter;stroke-miterlimit:0;stroke-dasharray:none;stroke-dashoffset:0;stroke-opacity:1;paint-order:fill markers stroke"
       id="path834-3-3-1-8-15"
       sodipodi:type="arc"
       sodipodi:cx="-151.90497"
       sodipodi:cy="-18.461683"
       sodipodi:rx="0.71334153"
       sodipodi:ry="0.71334136"
       sodipodi:start="0"
       sodipodi:end="6.2807942"
       sodipodi:open="true"
       d="m -151.19163,-18.461683 a 0.71334153,0.71334136 0 0 1 -0.71291,0.713341 0.71334153,0.71334136 0 0 1 -0.71377,-0.712488 0.71334153,0.71334136 0 0 1 0.71206,-0.714193 0.71334153,0.71334136 0 0 1 0.71462,0.711634"
       transform="rotate(-150)" />
    <path
       style="opacity:1;fill:#828282;fill-opacity:1;fill-rule:evenodd;stroke:#ff5555;stroke-width:0.27436206;stroke-linecap:butt;stroke-linejoin:miter;stroke-miterlimit:0;stroke-dasharray:none;stroke-dashoffset:0;stroke-opacity:1;paint-order:fill markers stroke"
       id="path834-3-3-1-8-9"
       sodipodi:type="arc"
       sodipodi:cx="-142.90913"
       sodipodi:cy="-21.768972"
       sodipodi:rx="0.71334153"
       sodipodi:ry="0.71334136"
       sodipodi:start="0"
       sodipodi:end="6.2807942"
       sodipodi:open="true"
       d="m -142.19579,-21.768972 a 0.71334153,0.71334136 0 0 1 -0.71292,0.713341 0.71334153,0.71334136 0 0 1 -0.71376,-0.712489 0.71334153,0.71334136 0 0 1 0.71206,-0.714193 0.71334153,0.71334136 0 0 1 0.71462,0.711635"
       transform="rotate(-150)" />
    <path
       style="fill:none;stroke:#0573ff;stroke-width:0.17;stroke-linecap:round;stroke-linejoin:miter;stroke-miterlimit:4;stroke-dasharray:0.17, 0.51;stroke-dashoffset:0;stroke-opacity:1"
       d="m 88.13089,87.442135 1.054803,4.026937"
       id="path6445"
       inkscape:connector-curvature="0" />
    <path
       style="fill:none;stroke:#0573ff;stroke-width:0.17;stroke-linecap:round;stroke-linejoin:miter;stroke-miterlimit:4;stroke-dasharray:0.17, 0.51;stroke-dashoffset:0;stroke-opacity:1"
       d="m 99.87257,84.523752 2.17897,8.318714"
       id="path6445-0"
       inkscape:connector-curvature="0" />
    <path
       style="fill:none;stroke:#0573ff;stroke-width:0.17000002;stroke-linecap:round;stroke-linejoin:miter;stroke-miterlimit:4;stroke-dasharray:0.17000001, 0.51000002;stroke-dashoffset:0;stroke-opacity:1"
       d="m 105.44539,80.248923 0.71235,2.719521"
       id="path6445-0-3"
       inkscape:connector-curvature="0" />
    <path
       style="fill:none;stroke:#0573ff;stroke-width:0.17000002;stroke-linecap:round;stroke-linejoin:miter;stroke-miterlimit:4;stroke-dasharray:0.17000001, 0.51000002;stroke-dashoffset:0;stroke-opacity:1"
       d="m 116.19223,80.380622 0.60799,2.321151"
       id="path6445-0-0"
       inkscape:connector-curvature="0" />
  </g>
</svg>
