<?xml version="1.0" encoding="UTF-8" standalone="no"?>
<!-- Created with Inkscape (http://www.inkscape.org/) -->

<svg
   xmlns:dc="http://purl.org/dc/elements/1.1/"
   xmlns:cc="http://creativecommons.org/ns#"
   xmlns:rdf="http://www.w3.org/1999/02/22-rdf-syntax-ns#"
   xmlns:svg="http://www.w3.org/2000/svg"
   xmlns="http://www.w3.org/2000/svg"
   xmlns:sodipodi="http://sodipodi.sourceforge.net/DTD/sodipodi-0.dtd"
   xmlns:inkscape="http://www.inkscape.org/namespaces/inkscape"
   width="210mm"
   height="297mm"
   viewBox="0 0 210 297"
   version="1.1"
   id="svg8"
   inkscape:version="0.92.2 (unknown)"
   sodipodi:docname="domain_decomposition.svg">
  <defs
     id="defs2" />
  <sodipodi:namedview
     id="base"
     pagecolor="#ffffff"
     bordercolor="#666666"
     borderopacity="1.0"
     inkscape:pageopacity="0.0"
     inkscape:pageshadow="2"
     inkscape:zoom="2.8"
     inkscape:cx="453.91775"
     inkscape:cy="284.89487"
     inkscape:document-units="mm"
     inkscape:current-layer="layer1"
     showgrid="false"
     inkscape:snap-object-midpoints="true"
     inkscape:window-width="1920"
     inkscape:window-height="1056"
     inkscape:window-x="414"
     inkscape:window-y="1464"
     inkscape:window-maximized="1" />
  <metadata
     id="metadata5">
    <rdf:RDF>
      <cc:Work
         rdf:about="">
        <dc:format>image/svg+xml</dc:format>
        <dc:type
           rdf:resource="http://purl.org/dc/dcmitype/StillImage" />
        <dc:title></dc:title>
      </cc:Work>
    </rdf:RDF>
  </metadata>
  <g
     inkscape:label="Layer 1"
     inkscape:groupmode="layer"
     id="layer1">
    <path
       style="fill:none;stroke:#000000;stroke-width:0.26458332px;stroke-linecap:butt;stroke-linejoin:miter;stroke-opacity:1"
       d="M 24.568452,20.888392 64.633927,82.498511 65.011905,21.455357 22.300595,81.742559 71.437499,56.985119 19.465774,46.212796 47.058034,19.376488 74.083332,38.08631 21.166666,62.465772 48.56994,81.55357"
       id="path815"
       inkscape:connector-curvature="0" />
    <path
       style="opacity:1;fill:#0573ff;fill-opacity:0.2745098;fill-rule:evenodd;stroke:#0573ff;stroke-width:0.03152135;stroke-linecap:round;stroke-linejoin:miter;stroke-miterlimit:4;stroke-dasharray:0.03152135, 0.09456405;stroke-dashoffset:0;stroke-opacity:1;paint-order:fill markers stroke"
       id="path817"
       sodipodi:type="arc"
       sodipodi:cx="124.58762"
       sodipodi:cy="32.561184"
       sodipodi:rx="1.4366196"
       sodipodi:ry="1.4366204"
       sodipodi:start="0"
       sodipodi:end="6.2807942"
       sodipodi:open="true"
       d="m 126.02424,32.561184 a 1.4366196,1.4366204 0 0 1 -1.43576,1.43662 1.4366196,1.4366204 0 0 1 -1.43748,-1.434903 1.4366196,1.4366204 0 0 1 1.43405,-1.438335 1.4366196,1.4366204 0 0 1 1.43919,1.433183" />
    <path
       style="opacity:1;fill:#0573ff;fill-opacity:0.2745098;fill-rule:evenodd;stroke:#0573ff;stroke-width:0.03152135;stroke-linecap:round;stroke-linejoin:miter;stroke-miterlimit:4;stroke-dasharray:0.03152135, 0.09456405;stroke-dashoffset:0;stroke-opacity:1;paint-order:fill markers stroke"
       id="path817-3"
       sodipodi:type="arc"
       sodipodi:cx="140.98512"
       sodipodi:cy="32.038689"
       sodipodi:rx="1.4366198"
       sodipodi:ry="1.4366204"
       sodipodi:start="0"
       sodipodi:end="6.2807942"
       sodipodi:open="true"
       d="m 142.42174,32.038689 a 1.4366198,1.4366204 0 0 1 -1.43576,1.43662 1.4366198,1.4366204 0 0 1 -1.43748,-1.434903 1.4366198,1.4366204 0 0 1 1.43405,-1.438335 1.4366198,1.4366204 0 0 1 1.43919,1.433183" />
    <path
       style="opacity:1;fill:#0573ff;fill-opacity:0.2745098;fill-rule:evenodd;stroke:#0573ff;stroke-width:0.03152135;stroke-linecap:round;stroke-linejoin:miter;stroke-miterlimit:4;stroke-dasharray:0.03152135, 0.09456405;stroke-dashoffset:0;stroke-opacity:1;paint-order:fill markers stroke"
       id="path817-6"
       sodipodi:type="arc"
       sodipodi:cx="150.62352"
       sodipodi:cy="34.306541"
       sodipodi:rx="1.4366198"
       sodipodi:ry="1.4366204"
       sodipodi:start="0"
       sodipodi:end="6.2807942"
       sodipodi:open="true"
       d="m 152.06014,34.306541 a 1.4366198,1.4366204 0 0 1 -1.43576,1.436621 1.4366198,1.4366204 0 0 1 -1.43748,-1.434903 1.4366198,1.4366204 0 0 1 1.43404,-1.438336 1.4366198,1.4366204 0 0 1 1.4392,1.433183"
       inkscape:transform-center-x="9.8273817"
       inkscape:transform-center-y="-0.56696426" />
    <path
       style="opacity:1;fill:#0573ff;fill-opacity:0.2745098;fill-rule:evenodd;stroke:#0573ff;stroke-width:0.03152135;stroke-linecap:round;stroke-linejoin:miter;stroke-miterlimit:4;stroke-dasharray:0.03152135, 0.09456405;stroke-dashoffset:0;stroke-opacity:1;paint-order:fill markers stroke"
       id="path817-7"
       sodipodi:type="arc"
       sodipodi:cx="162.90773"
       sodipodi:cy="33.134815"
       sodipodi:rx="1.4366198"
       sodipodi:ry="1.4366204"
       sodipodi:start="0"
       sodipodi:end="6.2807942"
       sodipodi:open="true"
       d="m 164.34435,33.134815 a 1.4366198,1.4366204 0 0 1 -1.43576,1.43662 1.4366198,1.4366204 0 0 1 -1.43748,-1.434902 1.4366198,1.4366204 0 0 1 1.43404,-1.438336 1.4366198,1.4366204 0 0 1 1.4392,1.433183"
       inkscape:transform-center-x="4.9136913"
       inkscape:transform-center-y="-3.2127976" />
    <path
       style="opacity:1;fill:#0573ff;fill-opacity:0.2745098;fill-rule:evenodd;stroke:#0573ff;stroke-width:0.03152135;stroke-linecap:round;stroke-linejoin:miter;stroke-miterlimit:4;stroke-dasharray:0.03152135, 0.09456405;stroke-dashoffset:0;stroke-opacity:1;paint-order:fill markers stroke"
       id="path817-5"
       sodipodi:type="arc"
       sodipodi:cx="128.43965"
       sodipodi:cy="82.003807"
       sodipodi:rx="1.4366198"
       sodipodi:ry="1.4366204"
       sodipodi:start="0"
       sodipodi:end="6.2807942"
       sodipodi:open="true"
       d="m 129.87627,82.003807 a 1.4366198,1.4366204 0 0 1 -1.43576,1.43662 1.4366198,1.4366204 0 0 1 -1.43748,-1.434902 1.4366198,1.4366204 0 0 1 1.43405,-1.438336 1.4366198,1.4366204 0 0 1 1.43919,1.433183" />
    <path
       style="opacity:1;fill:#0573ff;fill-opacity:0.2745098;fill-rule:evenodd;stroke:#0573ff;stroke-width:0.03152135;stroke-linecap:round;stroke-linejoin:miter;stroke-miterlimit:4;stroke-dasharray:0.03152135, 0.09456405;stroke-dashoffset:0;stroke-opacity:1;paint-order:fill markers stroke"
       id="path817-3-3"
       sodipodi:type="arc"
       sodipodi:cx="141.43538"
       sodipodi:cy="82.048279"
       sodipodi:rx="1.4366199"
       sodipodi:ry="1.4366204"
       sodipodi:start="0"
       sodipodi:end="6.2807942"
       sodipodi:open="true"
       d="m 142.872,82.048279 a 1.4366199,1.4366204 0 0 1 -1.43576,1.43662 1.4366199,1.4366204 0 0 1 -1.43748,-1.434903 1.4366199,1.4366204 0 0 1 1.43404,-1.438335 1.4366199,1.4366204 0 0 1 1.43919,1.433183" />
    <path
       style="opacity:1;fill:#0573ff;fill-opacity:0.2745098;fill-rule:evenodd;stroke:#0573ff;stroke-width:0.03152135;stroke-linecap:round;stroke-linejoin:miter;stroke-miterlimit:4;stroke-dasharray:0.03152135, 0.09456405;stroke-dashoffset:0;stroke-opacity:1;paint-order:fill markers stroke"
       id="path817-6-5"
       sodipodi:type="arc"
       sodipodi:cx="151.07378"
       sodipodi:cy="82.048271"
       sodipodi:rx="1.4366199"
       sodipodi:ry="1.4366204"
       sodipodi:start="0"
       sodipodi:end="6.2807942"
       sodipodi:open="true"
       d="m 152.5104,82.048271 a 1.4366199,1.4366204 0 0 1 -1.43576,1.43662 1.4366199,1.4366204 0 0 1 -1.43748,-1.434902 1.4366199,1.4366204 0 0 1 1.43404,-1.438336 1.4366199,1.4366204 0 0 1 1.43919,1.433183"
       inkscape:transform-center-x="9.8273817"
       inkscape:transform-center-y="-0.56696426" />
    <path
       style="opacity:1;fill:#0573ff;fill-opacity:0.2745098;fill-rule:evenodd;stroke:#0573ff;stroke-width:0.03152135;stroke-linecap:round;stroke-linejoin:miter;stroke-miterlimit:4;stroke-dasharray:0.03152135, 0.09456405;stroke-dashoffset:0;stroke-opacity:1;paint-order:fill markers stroke"
       id="path817-7-6"
       sodipodi:type="arc"
       sodipodi:cx="165.62584"
       sodipodi:cy="82.615234"
       sodipodi:rx="1.4366199"
       sodipodi:ry="1.4366204"
       sodipodi:start="0"
       sodipodi:end="6.2807942"
       sodipodi:open="true"
       d="m 167.06246,82.615234 a 1.4366199,1.4366204 0 0 1 -1.43576,1.43662 1.4366199,1.4366204 0 0 1 -1.43748,-1.434902 1.4366199,1.4366204 0 0 1 1.43404,-1.438336 1.4366199,1.4366204 0 0 1 1.4392,1.433183"
       inkscape:transform-center-x="4.9136913"
       inkscape:transform-center-y="-3.2127976" />
    <path
       style="opacity:1;fill:#0573ff;fill-opacity:0.2745098;fill-rule:evenodd;stroke:#0573ff;stroke-width:0.03152135;stroke-linecap:round;stroke-linejoin:miter;stroke-miterlimit:4;stroke-dasharray:0.03152135, 0.09456405;stroke-dashoffset:0;stroke-opacity:1;paint-order:fill markers stroke"
       id="path817-2"
       sodipodi:type="arc"
       sodipodi:cx="39.07238"
       sodipodi:cy="-174.89284"
       sodipodi:rx="1.4366198"
       sodipodi:ry="1.4366204"
       sodipodi:start="0"
       sodipodi:end="6.2807942"
       sodipodi:open="true"
       d="m 40.509,-174.89284 a 1.4366198,1.4366204 0 0 1 -1.435761,1.43662 1.4366198,1.4366204 0 0 1 -1.437478,-1.4349 1.4366198,1.4366204 0 0 1 1.434043,-1.43834 1.4366198,1.4366204 0 0 1 1.439192,1.43319"
       transform="rotate(90)" />
    <path
       style="opacity:1;fill:#0573ff;fill-opacity:0.2745098;fill-rule:evenodd;stroke:#0573ff;stroke-width:0.03152135;stroke-linecap:round;stroke-linejoin:miter;stroke-miterlimit:4;stroke-dasharray:0.03152135, 0.09456405;stroke-dashoffset:0;stroke-opacity:1;paint-order:fill markers stroke"
       id="path817-3-9"
       sodipodi:type="arc"
       sodipodi:cx="52.635063"
       sodipodi:cy="-175.22635"
       sodipodi:rx="1.4366199"
       sodipodi:ry="1.4366204"
       sodipodi:start="0"
       sodipodi:end="6.2807942"
       sodipodi:open="true"
       d="m 54.071683,-175.22635 a 1.4366199,1.4366204 0 0 1 -1.435761,1.43662 1.4366199,1.4366204 0 0 1 -1.437478,-1.4349 1.4366199,1.4366204 0 0 1 1.434043,-1.43834 1.4366199,1.4366204 0 0 1 1.439192,1.43319"
       transform="rotate(90)" />
    <path
       style="opacity:1;fill:#0573ff;fill-opacity:0.2745098;fill-rule:evenodd;stroke:#0573ff;stroke-width:0.03152135;stroke-linecap:round;stroke-linejoin:miter;stroke-miterlimit:4;stroke-dasharray:0.03152135, 0.09456405;stroke-dashoffset:0;stroke-opacity:1;paint-order:fill markers stroke"
       id="path817-6-1"
       sodipodi:type="arc"
       sodipodi:cx="64.730286"
       sodipodi:cy="-172.20255"
       sodipodi:rx="1.4366199"
       sodipodi:ry="1.4366204"
       sodipodi:start="0"
       sodipodi:end="6.2807942"
       sodipodi:open="true"
       d="m 66.166906,-172.20255 a 1.4366199,1.4366204 0 0 1 -1.435762,1.43662 1.4366199,1.4366204 0 0 1 -1.437477,-1.4349 1.4366199,1.4366204 0 0 1 1.434042,-1.43833 1.4366199,1.4366204 0 0 1 1.439192,1.43318"
       inkscape:transform-center-x="9.827397"
       inkscape:transform-center-y="-0.5669643"
       transform="rotate(90)" />
    <path
       style="opacity:1;fill:#0573ff;fill-opacity:0.2745098;fill-rule:evenodd;stroke:#0573ff;stroke-width:0.03152135;stroke-linecap:round;stroke-linejoin:miter;stroke-miterlimit:4;stroke-dasharray:0.03152135, 0.09456405;stroke-dashoffset:0;stroke-opacity:1;paint-order:fill markers stroke"
       id="path817-7-2"
       sodipodi:type="arc"
       sodipodi:cx="77.392494"
       sodipodi:cy="-175.22636"
       sodipodi:rx="1.4366199"
       sodipodi:ry="1.4366204"
       sodipodi:start="0"
       sodipodi:end="6.2807942"
       sodipodi:open="true"
       d="m 78.829114,-175.22636 a 1.4366199,1.4366204 0 0 1 -1.435761,1.43662 1.4366199,1.4366204 0 0 1 -1.437478,-1.43491 1.4366199,1.4366204 0 0 1 1.434043,-1.43833 1.4366199,1.4366204 0 0 1 1.439192,1.43318"
       inkscape:transform-center-x="4.9136913"
       inkscape:transform-center-y="-3.2128052"
       transform="rotate(90)" />
    <path
       style="opacity:1;fill:#0573ff;fill-opacity:0.2745098;fill-rule:evenodd;stroke:#0573ff;stroke-width:0.03152135;stroke-linecap:round;stroke-linejoin:miter;stroke-miterlimit:4;stroke-dasharray:0.03152135, 0.09456405;stroke-dashoffset:0;stroke-opacity:1;paint-order:fill markers stroke"
       id="path817-70"
       sodipodi:type="arc"
       sodipodi:cx="42.663147"
       sodipodi:cy="-117.74292"
       sodipodi:rx="1.4366198"
       sodipodi:ry="1.4366204"
       sodipodi:start="0"
       sodipodi:end="6.2807942"
       sodipodi:open="true"
       d="m 44.099767,-117.74292 a 1.4366198,1.4366204 0 0 1 -1.435761,1.43662 1.4366198,1.4366204 0 0 1 -1.437478,-1.4349 1.4366198,1.4366204 0 0 1 1.434043,-1.43834 1.4366198,1.4366204 0 0 1 1.439192,1.43318"
       transform="rotate(90)" />
    <path
       style="opacity:1;fill:#0573ff;fill-opacity:0.2745098;fill-rule:evenodd;stroke:#0573ff;stroke-width:0.03152135;stroke-linecap:round;stroke-linejoin:miter;stroke-miterlimit:4;stroke-dasharray:0.03152135, 0.09456405;stroke-dashoffset:0;stroke-opacity:1;paint-order:fill markers stroke"
       id="path817-3-93"
       sodipodi:type="arc"
       sodipodi:cx="53.769001"
       sodipodi:cy="-120.91123"
       sodipodi:rx="1.4366199"
       sodipodi:ry="1.4366204"
       sodipodi:start="0"
       sodipodi:end="6.2807942"
       sodipodi:open="true"
       d="m 55.205621,-120.91123 a 1.4366199,1.4366204 0 0 1 -1.435761,1.43662 1.4366199,1.4366204 0 0 1 -1.437478,-1.4349 1.4366199,1.4366204 0 0 1 1.434043,-1.43834 1.4366199,1.4366204 0 0 1 1.439192,1.43318"
       transform="rotate(90)" />
    <path
       style="opacity:1;fill:#0573ff;fill-opacity:0.2745098;fill-rule:evenodd;stroke:#0573ff;stroke-width:0.03152135;stroke-linecap:round;stroke-linejoin:miter;stroke-miterlimit:4;stroke-dasharray:0.03152135, 0.09456405;stroke-dashoffset:0;stroke-opacity:1;paint-order:fill markers stroke"
       id="path817-6-6"
       sodipodi:type="arc"
       sodipodi:cx="62.840435"
       sodipodi:cy="-116.56452"
       sodipodi:rx="1.4366199"
       sodipodi:ry="1.4366204"
       sodipodi:start="0"
       sodipodi:end="6.2807942"
       sodipodi:open="true"
       d="m 64.277055,-116.56452 a 1.4366199,1.4366204 0 0 1 -1.435761,1.43662 1.4366199,1.4366204 0 0 1 -1.437478,-1.4349 1.4366199,1.4366204 0 0 1 1.434043,-1.43834 1.4366199,1.4366204 0 0 1 1.439192,1.43318"
       inkscape:transform-center-x="9.8273817"
       inkscape:transform-center-y="-0.56696426"
       transform="rotate(90)" />
    <path
       style="opacity:1;fill:#0573ff;fill-opacity:0.2745098;fill-rule:evenodd;stroke:#0573ff;stroke-width:0.03152135;stroke-linecap:round;stroke-linejoin:miter;stroke-miterlimit:4;stroke-dasharray:0.03152135, 0.09456405;stroke-dashoffset:0;stroke-opacity:1;paint-order:fill markers stroke"
       id="path817-7-0"
       sodipodi:type="arc"
       sodipodi:cx="75.502617"
       sodipodi:cy="-115.24161"
       sodipodi:rx="1.4366199"
       sodipodi:ry="1.4366204"
       sodipodi:start="0"
       sodipodi:end="6.2807942"
       sodipodi:open="true"
       d="m 76.939237,-115.24161 a 1.4366199,1.4366204 0 0 1 -1.435761,1.43662 1.4366199,1.4366204 0 0 1 -1.437478,-1.4349 1.4366199,1.4366204 0 0 1 1.434043,-1.43834 1.4366199,1.4366204 0 0 1 1.439192,1.43319"
       inkscape:transform-center-x="4.9136913"
       inkscape:transform-center-y="-3.2127976"
       transform="rotate(90)" />
    <path
       style="fill:none;stroke:#000000;stroke-width:0.26458332px;stroke-linecap:butt;stroke-linejoin:miter;stroke-opacity:1"
       d="M 124.58762,32.561183 141.43538,82.048278 120.91123,53.769 l 53.98161,-14.69662 -46.45319,42.931426 22.18387,-47.697265 15.00232,48.308694 -47.88292,-39.952088 57.48343,9.971915 -58.66183,10.205373 11.87513,19.163371 12.54547,-49.965117 10.08865,50.009581 -35.83216,-6.545654 25.74351,-43.463927 31.21742,32.691596 -21.12877,17.317985 24.15259,-4.655778 z"
       id="path923"
       inkscape:connector-curvature="0" />
    <path
       style="fill:none;stroke:#000000;stroke-width:0.26458332px;stroke-linecap:butt;stroke-linejoin:miter;stroke-opacity:1"
       d="m 162.90773,33.134816 2.71811,49.480419 -24.64072,-50.576546 -20.07389,21.730311 54.31512,-1.133938 -59.98474,22.867554 59.98475,1.889876 -58.66184,-14.552057 55.63802,1.88985 L 120.91123,53.769 150.62352,34.306541 141.43538,82.048278 175.22635,52.635062 124.58762,32.561183 151.07377,82.04827 175.22635,52.635062"
       id="path925"
       inkscape:connector-curvature="0"
       sodipodi:nodetypes="cccccccccccccccc" />
    <path
       style="opacity:1;fill:#0573ff;fill-opacity:0.2745098;fill-rule:evenodd;stroke:#0573ff;stroke-width:0.03152135;stroke-linecap:round;stroke-linejoin:miter;stroke-miterlimit:4;stroke-dasharray:0.03152135, 0.09456405;stroke-dashoffset:0;stroke-opacity:1;paint-order:fill markers stroke"
       id="path817-2-6"
       sodipodi:type="arc"
       sodipodi:cx="116.04391"
       sodipodi:cy="-93.454613"
       sodipodi:rx="1.4366199"
       sodipodi:ry="1.4366204"
       sodipodi:start="0"
       sodipodi:end="6.2807942"
       sodipodi:open="true"
       d="m 117.48053,-93.454613 a 1.4366199,1.4366204 0 0 1 -1.43576,1.43662 1.4366199,1.4366204 0 0 1 -1.43748,-1.434902 1.4366199,1.4366204 0 0 1 1.43404,-1.438336 1.4366199,1.4366204 0 0 1 1.43919,1.433183"
       transform="rotate(90)" />
    <path
       style="opacity:1;fill:#0573ff;fill-opacity:0.2745098;fill-rule:evenodd;stroke:#0573ff;stroke-width:0.03152135;stroke-linecap:round;stroke-linejoin:miter;stroke-miterlimit:4;stroke-dasharray:0.03152135, 0.09456405;stroke-dashoffset:0;stroke-opacity:1;paint-order:fill markers stroke"
       id="path817-2-2"
       sodipodi:type="arc"
       sodipodi:cx="117.36681"
       sodipodi:cy="-114.3378"
       sodipodi:rx="1.4366199"
       sodipodi:ry="1.4366204"
       sodipodi:start="0"
       sodipodi:end="6.2807942"
       sodipodi:open="true"
       d="m 118.80343,-114.3378 a 1.4366199,1.4366204 0 0 1 -1.43576,1.43662 1.4366199,1.4366204 0 0 1 -1.43748,-1.4349 1.4366199,1.4366204 0 0 1 1.43405,-1.43834 1.4366199,1.4366204 0 0 1 1.43919,1.43319"
       transform="rotate(90)" />
    <path
       style="opacity:1;fill:#0573ff;fill-opacity:0.2745098;fill-rule:evenodd;stroke:#0573ff;stroke-width:0.03152135;stroke-linecap:round;stroke-linejoin:miter;stroke-miterlimit:4;stroke-dasharray:0.03152135, 0.09456405;stroke-dashoffset:0;stroke-opacity:1;paint-order:fill markers stroke"
       id="path817-2-61"
       sodipodi:type="arc"
       sodipodi:cx="116.32738"
       sodipodi:cy="-137.01636"
       sodipodi:rx="1.4366199"
       sodipodi:ry="1.4366204"
       sodipodi:start="0"
       sodipodi:end="6.2807942"
       sodipodi:open="true"
       d="m 117.764,-137.01636 a 1.4366199,1.4366204 0 0 1 -1.43576,1.43662 1.4366199,1.4366204 0 0 1 -1.43748,-1.4349 1.4366199,1.4366204 0 0 1 1.43404,-1.43834 1.4366199,1.4366204 0 0 1 1.43919,1.43319"
       transform="rotate(90)" />
    <path
       style="opacity:1;fill:#0573ff;fill-opacity:0.2745098;fill-rule:evenodd;stroke:#0573ff;stroke-width:0.03152135;stroke-linecap:round;stroke-linejoin:miter;stroke-miterlimit:4;stroke-dasharray:0.03152135, 0.09456405;stroke-dashoffset:0;stroke-opacity:1;paint-order:fill markers stroke"
       id="path817-2-8"
       sodipodi:type="arc"
       sodipodi:cx="135.79315"
       sodipodi:cy="-89.107887"
       sodipodi:rx="1.4366199"
       sodipodi:ry="1.4366204"
       sodipodi:start="0"
       sodipodi:end="6.2807942"
       sodipodi:open="true"
       d="m 137.22977,-89.107887 a 1.4366199,1.4366204 0 0 1 -1.43576,1.43662 1.4366199,1.4366204 0 0 1 -1.43748,-1.434903 1.4366199,1.4366204 0 0 1 1.43405,-1.438335 1.4366199,1.4366204 0 0 1 1.43919,1.433183"
       transform="rotate(90)" />
    <path
       style="opacity:1;fill:#0573ff;fill-opacity:0.2745098;fill-rule:evenodd;stroke:#0573ff;stroke-width:0.03152135;stroke-linecap:round;stroke-linejoin:miter;stroke-miterlimit:4;stroke-dasharray:0.03152135, 0.09456405;stroke-dashoffset:0;stroke-opacity:1;paint-order:fill markers stroke"
       id="path817-2-7"
       sodipodi:type="arc"
       sodipodi:cx="135.98215"
       sodipodi:cy="-138.62277"
       sodipodi:rx="1.4366199"
       sodipodi:ry="1.4366204"
       sodipodi:start="0"
       sodipodi:end="6.2807942"
       sodipodi:open="true"
       d="m 137.41877,-138.62277 a 1.4366199,1.4366204 0 0 1 -1.43576,1.43662 1.4366199,1.4366204 0 0 1 -1.43748,-1.4349 1.4366199,1.4366204 0 0 1 1.43404,-1.43834 1.4366199,1.4366204 0 0 1 1.43919,1.43318"
       transform="rotate(90)" />
    <path
       style="opacity:1;fill:#0573ff;fill-opacity:0.2745098;fill-rule:evenodd;stroke:#0573ff;stroke-width:0.03152135;stroke-linecap:round;stroke-linejoin:miter;stroke-miterlimit:4;stroke-dasharray:0.03152135, 0.09456405;stroke-dashoffset:0;stroke-opacity:1;paint-order:fill markers stroke"
       id="path817-2-9"
       sodipodi:type="arc"
       sodipodi:cx="157.05432"
       sodipodi:cy="-90.336304"
       sodipodi:rx="1.4366199"
       sodipodi:ry="1.4366204"
       sodipodi:start="0"
       sodipodi:end="6.2807942"
       sodipodi:open="true"
       d="m 158.49094,-90.336304 a 1.4366199,1.4366204 0 0 1 -1.43576,1.43662 1.4366199,1.4366204 0 0 1 -1.43748,-1.434902 1.4366199,1.4366204 0 0 1 1.43404,-1.438336 1.4366199,1.4366204 0 0 1 1.4392,1.433183"
       transform="rotate(90)" />
    <path
       style="opacity:1;fill:#0573ff;fill-opacity:0.2745098;fill-rule:evenodd;stroke:#0573ff;stroke-width:0.03152135;stroke-linecap:round;stroke-linejoin:miter;stroke-miterlimit:4;stroke-dasharray:0.03152135, 0.09456405;stroke-dashoffset:0;stroke-opacity:1;paint-order:fill markers stroke"
       id="path817-2-20"
       sodipodi:type="arc"
       sodipodi:cx="154.97543"
       sodipodi:cy="-114.14881"
       sodipodi:rx="1.4366199"
       sodipodi:ry="1.4366204"
       sodipodi:start="0"
       sodipodi:end="6.2807942"
       sodipodi:open="true"
       d="m 156.41205,-114.14881 a 1.4366199,1.4366204 0 0 1 -1.43576,1.43662 1.4366199,1.4366204 0 0 1 -1.43748,-1.4349 1.4366199,1.4366204 0 0 1 1.43405,-1.43834 1.4366199,1.4366204 0 0 1 1.43919,1.43318"
       transform="rotate(90)" />
    <path
       style="opacity:1;fill:#0573ff;fill-opacity:0.2745098;fill-rule:evenodd;stroke:#0573ff;stroke-width:0.03152135;stroke-linecap:round;stroke-linejoin:miter;stroke-miterlimit:4;stroke-dasharray:0.03152135, 0.09456405;stroke-dashoffset:0;stroke-opacity:1;paint-order:fill markers stroke"
       id="path817-2-23"
       sodipodi:type="arc"
       sodipodi:cx="158.9442"
       sodipodi:cy="-139.75668"
       sodipodi:rx="1.4366199"
       sodipodi:ry="1.4366204"
       sodipodi:start="0"
       sodipodi:end="6.2807942"
       sodipodi:open="true"
       d="m 160.38082,-139.75668 a 1.4366199,1.4366204 0 0 1 -1.43576,1.43662 1.4366199,1.4366204 0 0 1 -1.43748,-1.43491 1.4366199,1.4366204 0 0 1 1.43404,-1.43833 1.4366199,1.4366204 0 0 1 1.43919,1.43318"
       transform="rotate(90)" />
    <path
       style="fill:none;stroke:#000000;stroke-width:0.26458332px;stroke-linecap:butt;stroke-linejoin:miter;stroke-opacity:1"
       d="M 93.45461,116.04391 139.75668,158.9442 114.3378,117.36681 90.336303,157.05432 138.62277,135.98214 Z"
       id="path984"
       inkscape:connector-curvature="0" />
    <path
       style="fill:none;stroke:#000000;stroke-width:0.26458332px;stroke-linecap:butt;stroke-linejoin:miter;stroke-opacity:1"
       d="M 137.01636,116.32738 114.14881,154.97543 93.454608,116.04391"
       id="path986"
       inkscape:connector-curvature="0" />
    <path
       style="fill:none;stroke:#000000;stroke-width:0.26458332px;stroke-linecap:butt;stroke-linejoin:miter;stroke-opacity:1"
       d="m 89.107887,135.79315 25.229913,-18.42634 24.28497,18.61533 -24.47396,18.99329 z"
       id="path988"
       inkscape:connector-curvature="0" />
    <path
       style="fill:none;stroke:#000000;stroke-width:0.26458332px;stroke-linecap:butt;stroke-linejoin:miter;stroke-opacity:1"
       d="M 139.75668,158.9442 89.107885,135.79315 137.01636,116.32738 90.336303,157.05432"
       id="path990"
       inkscape:connector-curvature="0" />
    <path
       style="fill:none;stroke:#000000;stroke-width:0.26458332px;stroke-linecap:butt;stroke-linejoin:miter;stroke-opacity:1"
       d="m 114.3378,117.36681 -0.18899,37.60862"
       id="path992"
       inkscape:connector-curvature="0" />
    <path
       style="fill:none;stroke:#000000;stroke-width:0.26458332px;stroke-linecap:butt;stroke-linejoin:miter;stroke-opacity:1"
       d="M 138.62277,135.98214 89.107887,135.79315"
       id="path994"
       inkscape:connector-curvature="0" />
    <path
       style="opacity:1;fill:#0573ff;fill-opacity:0.2745098;fill-rule:evenodd;stroke:#0573ff;stroke-width:0.03152135;stroke-linecap:round;stroke-linejoin:miter;stroke-miterlimit:4;stroke-dasharray:0.03152135, 0.09456405;stroke-dashoffset:0;stroke-opacity:1;paint-order:fill markers stroke"
       id="path817-2-75"
       sodipodi:type="arc"
       sodipodi:cx="204.30135"
       sodipodi:cy="-91.375748"
       sodipodi:rx="1.4366199"
       sodipodi:ry="1.4366204"
       sodipodi:start="0"
       sodipodi:end="6.2807942"
       sodipodi:open="true"
       d="m 205.73797,-91.375748 a 1.4366199,1.4366204 0 0 1 -1.43577,1.43662 1.4366199,1.4366204 0 0 1 -1.43747,-1.434902 1.4366199,1.4366204 0 0 1 1.43404,-1.438336 1.4366199,1.4366204 0 0 1 1.43919,1.433183"
       transform="rotate(90)" />
    <path
       style="opacity:1;fill:#0573ff;fill-opacity:0.2745098;fill-rule:evenodd;stroke:#0573ff;stroke-width:0.03152135;stroke-linecap:round;stroke-linejoin:miter;stroke-miterlimit:4;stroke-dasharray:0.03152135, 0.09456405;stroke-dashoffset:0;stroke-opacity:1;paint-order:fill markers stroke"
       id="path817-2-92"
       sodipodi:type="arc"
       sodipodi:cx="203.63988"
       sodipodi:cy="-107.34524"
       sodipodi:rx="1.4366199"
       sodipodi:ry="1.4366204"
       sodipodi:start="0"
       sodipodi:end="6.2807942"
       sodipodi:open="true"
       d="m 205.0765,-107.34524 a 1.4366199,1.4366204 0 0 1 -1.43576,1.43662 1.4366199,1.4366204 0 0 1 -1.43748,-1.4349 1.4366199,1.4366204 0 0 1 1.43404,-1.43834 1.4366199,1.4366204 0 0 1 1.43919,1.43319"
       transform="rotate(90)" />
    <path
       style="opacity:1;fill:#0573ff;fill-opacity:0.2745098;fill-rule:evenodd;stroke:#0573ff;stroke-width:0.03152135;stroke-linecap:round;stroke-linejoin:miter;stroke-miterlimit:4;stroke-dasharray:0.03152135, 0.09456405;stroke-dashoffset:0;stroke-opacity:1;paint-order:fill markers stroke"
       id="path817-2-28"
       sodipodi:type="arc"
       sodipodi:cx="204.58482"
       sodipodi:cy="-127.94494"
       sodipodi:rx="1.4366199"
       sodipodi:ry="1.4366204"
       sodipodi:start="0"
       sodipodi:end="6.2807942"
       sodipodi:open="true"
       d="m 206.02144,-127.94494 a 1.4366199,1.4366204 0 0 1 -1.43576,1.43662 1.4366199,1.4366204 0 0 1 -1.43748,-1.4349 1.4366199,1.4366204 0 0 1 1.43405,-1.43834 1.4366199,1.4366204 0 0 1 1.43919,1.43319"
       transform="rotate(90)" />
    <path
       style="opacity:1;fill:#0573ff;fill-opacity:0.2745098;fill-rule:evenodd;stroke:#0573ff;stroke-width:0.03152135;stroke-linecap:round;stroke-linejoin:miter;stroke-miterlimit:4;stroke-dasharray:0.03152135, 0.09456405;stroke-dashoffset:0;stroke-opacity:1;paint-order:fill markers stroke"
       id="path817-2-97"
       sodipodi:type="arc"
       sodipodi:cx="204.58482"
       sodipodi:cy="-150.52902"
       sodipodi:rx="1.4366199"
       sodipodi:ry="1.4366204"
       sodipodi:start="0"
       sodipodi:end="6.2807942"
       sodipodi:open="true"
       d="m 206.02144,-150.52902 a 1.4366199,1.4366204 0 0 1 -1.43576,1.43662 1.4366199,1.4366204 0 0 1 -1.43748,-1.4349 1.4366199,1.4366204 0 0 1 1.43405,-1.43834 1.4366199,1.4366204 0 0 1 1.43919,1.43318"
       transform="rotate(90)" />
    <path
       style="opacity:1;fill:#0573ff;fill-opacity:0.2745098;fill-rule:evenodd;stroke:#0573ff;stroke-width:0.03152135;stroke-linecap:round;stroke-linejoin:miter;stroke-miterlimit:4;stroke-dasharray:0.03152135, 0.09456405;stroke-dashoffset:0;stroke-opacity:1;paint-order:fill markers stroke"
       id="path817-2-3"
       sodipodi:type="arc"
       sodipodi:cx="222.5387"
       sodipodi:cy="-91.28125"
       sodipodi:rx="1.4366199"
       sodipodi:ry="1.4366204"
       sodipodi:start="0"
       sodipodi:end="6.2807942"
       sodipodi:open="true"
       d="m 223.97532,-91.28125 a 1.4366199,1.4366204 0 0 1 -1.43576,1.43662 1.4366199,1.4366204 0 0 1 -1.43748,-1.434902 1.4366199,1.4366204 0 0 1 1.43404,-1.438336 1.4366199,1.4366204 0 0 1 1.43919,1.433183"
       transform="rotate(90)" />
    <path
       style="opacity:1;fill:#0573ff;fill-opacity:0.2745098;fill-rule:evenodd;stroke:#0573ff;stroke-width:0.03152135;stroke-linecap:round;stroke-linejoin:miter;stroke-miterlimit:4;stroke-dasharray:0.03152135, 0.09456405;stroke-dashoffset:0;stroke-opacity:1;paint-order:fill markers stroke"
       id="path817-2-612"
       sodipodi:type="arc"
       sodipodi:cx="244.08334"
       sodipodi:cy="-90.430801"
       sodipodi:rx="1.4366199"
       sodipodi:ry="1.4366204"
       sodipodi:start="0"
       sodipodi:end="6.2807942"
       sodipodi:open="true"
       d="m 245.51996,-90.430801 a 1.4366199,1.4366204 0 0 1 -1.43576,1.43662 1.4366199,1.4366204 0 0 1 -1.43748,-1.434903 1.4366199,1.4366204 0 0 1 1.43405,-1.438335 1.4366199,1.4366204 0 0 1 1.43919,1.433182"
       transform="rotate(90)" />
    <path
       style="opacity:1;fill:#0573ff;fill-opacity:0.2745098;fill-rule:evenodd;stroke:#0573ff;stroke-width:0.03152135;stroke-linecap:round;stroke-linejoin:miter;stroke-miterlimit:4;stroke-dasharray:0.03152135, 0.09456405;stroke-dashoffset:0;stroke-opacity:1;paint-order:fill markers stroke"
       id="path817-2-93"
       sodipodi:type="arc"
       sodipodi:cx="245.02826"
       sodipodi:cy="-105.73884"
       sodipodi:rx="1.4366199"
       sodipodi:ry="1.4366204"
       sodipodi:start="0"
       sodipodi:end="6.2807942"
       sodipodi:open="true"
       d="m 246.46488,-105.73884 a 1.4366199,1.4366204 0 0 1 -1.43576,1.43662 1.4366199,1.4366204 0 0 1 -1.43748,-1.4349 1.4366199,1.4366204 0 0 1 1.43404,-1.43834 1.4366199,1.4366204 0 0 1 1.4392,1.43319"
       transform="rotate(90)" />
    <path
       style="opacity:1;fill:#0573ff;fill-opacity:0.2745098;fill-rule:evenodd;stroke:#0573ff;stroke-width:0.03152135;stroke-linecap:round;stroke-linejoin:miter;stroke-miterlimit:4;stroke-dasharray:0.03152135, 0.09456405;stroke-dashoffset:0;stroke-opacity:1;paint-order:fill markers stroke"
       id="path817-2-1"
       sodipodi:type="arc"
       sodipodi:cx="245.31175"
       sodipodi:cy="-127.85045"
       sodipodi:rx="1.4366199"
       sodipodi:ry="1.4366204"
       sodipodi:start="0"
       sodipodi:end="6.2807942"
       sodipodi:open="true"
       d="m 246.74837,-127.85045 a 1.4366199,1.4366204 0 0 1 -1.43576,1.43662 1.4366199,1.4366204 0 0 1 -1.43748,-1.4349 1.4366199,1.4366204 0 0 1 1.43405,-1.43834 1.4366199,1.4366204 0 0 1 1.43919,1.43319"
       transform="rotate(90)" />
    <path
       style="opacity:1;fill:#0573ff;fill-opacity:0.2745098;fill-rule:evenodd;stroke:#0573ff;stroke-width:0.03152135;stroke-linecap:round;stroke-linejoin:miter;stroke-miterlimit:4;stroke-dasharray:0.03152135, 0.09456405;stroke-dashoffset:0;stroke-opacity:1;paint-order:fill markers stroke"
       id="path817-2-94"
       sodipodi:type="arc"
       sodipodi:cx="223.38913"
       sodipodi:cy="-151.37947"
       sodipodi:rx="1.4366199"
       sodipodi:ry="1.4366204"
       sodipodi:start="0"
       sodipodi:end="6.2807942"
       sodipodi:open="true"
       d="m 224.82575,-151.37947 a 1.4366199,1.4366204 0 0 1 -1.43576,1.43662 1.4366199,1.4366204 0 0 1 -1.43748,-1.4349 1.4366199,1.4366204 0 0 1 1.43404,-1.43834 1.4366199,1.4366204 0 0 1 1.4392,1.43318"
       transform="rotate(90)" />
    <path
       style="opacity:1;fill:#0573ff;fill-opacity:0.2745098;fill-rule:evenodd;stroke:#0573ff;stroke-width:0.03152135;stroke-linecap:round;stroke-linejoin:miter;stroke-miterlimit:4;stroke-dasharray:0.03152135, 0.09456405;stroke-dashoffset:0;stroke-opacity:1;paint-order:fill markers stroke"
       id="path817-2-78"
       sodipodi:type="arc"
       sodipodi:cx="245.02827"
       sodipodi:cy="-150.8125"
       sodipodi:rx="1.4366199"
       sodipodi:ry="1.4366204"
       sodipodi:start="0"
       sodipodi:end="6.2807942"
       sodipodi:open="true"
       d="m 246.46489,-150.8125 a 1.4366199,1.4366204 0 0 1 -1.43576,1.43662 1.4366199,1.4366204 0 0 1 -1.43747,-1.4349 1.4366199,1.4366204 0 0 1 1.43404,-1.43834 1.4366199,1.4366204 0 0 1 1.43919,1.43318"
       transform="rotate(90)" />
    <path
       style="fill:none;stroke:#000000;stroke-width:0.26458332px;stroke-linecap:butt;stroke-linejoin:miter;stroke-opacity:1"
       d="m 91.375747,204.30134 14.363093,40.72692 1.6064,-41.38838 20.50521,41.67187 0.0945,-40.72693 22.86756,40.44345 -59.531251,-22.48958 16.063991,-18.89881 -16.914439,40.44346 37.514139,-39.49852 -22.2061,40.44344 44.79018,-40.44344 -22.67857,40.72693 -36.569201,-22.77306 14.457591,22.48957 45.64063,-21.63913 -60.948669,20.69421 60.098219,-39.49852 -59.247771,17.95387 60.098221,0.85044 -23.52902,21.92262 z"
       id="path1056"
       inkscape:connector-curvature="0" />
    <path
       style="fill:none;stroke:#000000;stroke-width:0.26458332px;stroke-linecap:butt;stroke-linejoin:miter;stroke-opacity:1"
       d="m 91.375745,204.30134 59.436765,40.72693 -43.46727,-41.38839 44.03424,19.74925 z"
       id="path1058"
       inkscape:connector-curvature="0" />
    <path
       style="fill:none;stroke:#000000;stroke-width:0.26458332px;stroke-linecap:butt;stroke-linejoin:miter;stroke-opacity:1"
       d="m 127.94494,204.58482 23.43454,18.80431"
       id="path1060"
       inkscape:connector-curvature="0" />
  </g>
</svg>
