<?xml version="1.0" encoding="UTF-8" standalone="no"?>
<!-- Created with Inkscape (http://www.inkscape.org/) -->

<svg
   xmlns:dc="http://purl.org/dc/elements/1.1/"
   xmlns:cc="http://creativecommons.org/ns#"
   xmlns:rdf="http://www.w3.org/1999/02/22-rdf-syntax-ns#"
   xmlns:svg="http://www.w3.org/2000/svg"
   xmlns="http://www.w3.org/2000/svg"
   xmlns:sodipodi="http://sodipodi.sourceforge.net/DTD/sodipodi-0.dtd"
   xmlns:inkscape="http://www.inkscape.org/namespaces/inkscape"
   sodipodi:docname="math_chart.svg"
   inkscape:version="0.92.2 (unknown)"
   id="svg13458"
   version="1.1"
   viewBox="0 0 210 297"
   height="297mm"
   width="210mm">
  <sodipodi:namedview
     inkscape:window-maximized="0"
     inkscape:window-y="24"
     inkscape:window-x="960"
     inkscape:window-height="1028"
     inkscape:window-width="960"
     showborder="false"
     inkscape:showpageshadow="false"
     borderlayer="false"
     inkscape:pagecheckerboard="true"
     showgrid="false"
     inkscape:current-layer="layer1"
     inkscape:document-units="mm"
     inkscape:cy="217.14286"
     inkscape:cx="1319.2813"
     inkscape:zoom="0.35"
     inkscape:pageshadow="2"
     inkscape:pageopacity="0.0"
     borderopacity="1.0"
     bordercolor="#666666"
     pagecolor="#ffffff"
     id="base" />
  <defs
     id="defs13452" />
  <metadata
     id="metadata13455">
    <rdf:RDF>
      <cc:Work
         rdf:about="">
        <dc:format>image/svg+xml</dc:format>
        <dc:type
           rdf:resource="http://purl.org/dc/dcmitype/StillImage" />
        <dc:title></dc:title>
      </cc:Work>
    </rdf:RDF>
  </metadata>
  <g
     inkscape:label="Layer 1"
     inkscape:groupmode="layer"
     id="layer1">
    <g
       id="g14617"
       transform="translate(34.77381,-58.964286)">
      <g
         word-spacing="normal"
         letter-spacing="normal"
         font-size-adjust="none"
         font-stretch="normal"
         font-weight="normal"
         font-variant="normal"
         font-style="normal"
         stroke-miterlimit="10.433"
         xml:space="preserve"
         transform="matrix(0.3,0,0,-0.3,-52.5,222.75)"
         id="content"
         style="font-style:normal;font-variant:normal;font-weight:normal;font-stretch:normal;letter-spacing:normal;word-spacing:normal;text-anchor:start;fill:none;fill-opacity:1;fill-rule:evenodd;stroke:#000000;stroke-linecap:butt;stroke-linejoin:miter;stroke-miterlimit:10.43299961;stroke-dasharray:none;stroke-dashoffset:0;stroke-opacity:1"><polygon
           id="polygon14544"
           points="795.78,374.8 796.68,373.9 802.45,378.98 808.18,373.9 809.08,374.8 802.45,381.57 "
           style="fill:#000000;stroke-width:0" /><path
           id="path14546"
           d="m 792.68,363.73 v -15.39 h -3.44 V 346 h 12.55 v 2.34 h -3.44 v 10.41 c 0,5.43 4.29,7.87 7.43,7.87 1.69,0 2.74,-1.04 2.74,-4.83 v -13.45 h -3.44 V 346 h 12.56 v 2.34 h -3.44 v 12.9 c 0,5.23 -2.69,7.17 -7.67,7.17 -4.78,0 -7.43,-2.83 -8.72,-5.37 v 5.37 l -8.57,-0.39 v -2.34 c 3.09,0 3.44,0 3.44,-1.95 z"
           inkscape:connector-curvature="0"
           style="fill:#000000;stroke-width:0" /><path
           id="path14548"
           d="m 839.56,358.45 v 0.14 l -0.01,0.13 -0.02,0.13 -0.02,0.13 -0.03,0.13 -0.04,0.12 -0.04,0.13 -0.05,0.12 -0.05,0.11 -0.06,0.12 -0.06,0.11 -0.07,0.1 -0.08,0.11 -0.07,0.1 -0.09,0.09 -0.09,0.1 -0.09,0.08 -0.09,0.09 -0.1,0.08 -0.11,0.07 -0.1,0.07 -0.11,0.06 -0.12,0.06 -0.11,0.05 -0.12,0.05 -0.13,0.04 -0.12,0.04 -0.13,0.03 -0.13,0.02 -0.13,0.02 -0.13,0.01 h -0.13 c -1.45,0 -2.65,-1.19 -2.65,-2.64 0,-1.44 1.2,-2.64 2.65,-2.64 1.44,0 2.63,1.2 2.63,2.64 z"
           inkscape:connector-curvature="0"
           style="fill:#000000;stroke-width:0" /><path
           id="path14550"
           d="m 893.85,378.93 0.01,0.01 0.01,0.02 0.01,0.01 0.01,0.02 0.01,0.02 0.01,0.02 0.01,0.02 0.01,0.02 0.02,0.02 0.01,0.02 0.02,0.05 0.02,0.05 0.02,0.05 0.01,0.05 0.02,0.05 0.01,0.02 v 0.02 l 0.01,0.03 0.01,0.02 v 0.03 l 0.01,0.02 v 0.02 l 0.01,0.02 v 0.03 0.02 0.02 0.01 c 0,0.35 -0.05,0.4 -1.19,0.4 h -34.38 c -1.14,0 -1.19,-0.05 -1.19,-0.4 0,-0.19 0.15,-0.55 0.25,-0.69 l 16.79,-33.63 c 0.35,-0.64 0.5,-0.94 1.34,-0.94 0.85,0 1,0.3 1.35,0.94 l 0.15,3.74 -13.7,27.4 h 27.35 l -13.65,-27.4 -0.15,-3.74 z"
           inkscape:connector-curvature="0"
           style="fill:#000000;stroke-width:0" /><path
           id="path14552"
           d="m 914.63,376.19 0.04,0.16 0.04,0.16 0.04,0.15 0.04,0.14 0.04,0.14 0.05,0.12 0.04,0.13 0.05,0.11 0.06,0.11 0.06,0.1 0.06,0.1 0.07,0.09 0.08,0.08 0.09,0.08 0.09,0.08 0.11,0.06 0.11,0.07 0.13,0.05 0.14,0.06 0.15,0.05 0.16,0.04 0.09,0.02 0.09,0.02 0.09,0.01 0.1,0.02 0.1,0.02 0.11,0.01 0.11,0.01 0.11,0.02 0.12,0.01 0.12,0.01 0.13,0.01 0.13,0.01 0.14,0.01 h 0.14 l 0.14,0.01 h 0.15 l 0.16,0.01 h 0.16 0.16 l 0.18,0.01 h 0.17 0.18 c 1.2,0 1.6,0 1.6,0.95 0,0.59 -0.55,0.59 -0.75,0.59 h -13.2 c -0.35,0 -1,0 -1,-0.99 0,-0.55 0.45,-0.55 1.4,-0.55 2.09,0 3.44,0 3.44,-0.95 0,-0.25 0,-0.35 -0.1,-0.8 l -6.73,-26.84 c -0.45,-1.85 -0.6,-2.35 -4.53,-2.35 -1.15,0 -1.59,0 -1.59,-0.99 0,-0.55 0.59,-0.55 0.74,-0.55 h 13.2 c 0.4,0 1,0 1,0.95 0,0.59 -0.4,0.59 -1.49,0.59 -0.9,0 -1.15,0 -2.15,0.1 -1.04,0.1 -1.24,0.3 -1.24,0.85 0,0.4 0.09,0.8 0.2,1.15 z"
           inkscape:connector-curvature="0"
           style="fill:#000000;stroke-width:0" /><path
           id="path14554"
           d="m 926.75,353.37 0.01,0.01 v 0.01 l 0.01,0.03 v 0.03 l 0.01,0.03 v 0.03 l 0.01,0.04 v 0.03 l 0.01,0.03 v 0.04 l 0.01,0.03 v 0.04 0.03 l 0.01,0.04 v 0.03 0.04 0.03 c 0,0.04 0,0.49 -0.55,0.49 -0.04,0 -2.03,-0.18 -2.27,-0.18 -0.66,-0.07 -1.29,-0.1 -1.96,-0.17 -0.55,-0.04 -0.97,-0.07 -0.97,-0.8 0,-0.49 0.49,-0.49 0.91,-0.49 1.67,0 1.67,-0.21 1.67,-0.53 0,-0.2 -0.18,-0.9 -0.31,-1.35 l -1.75,-7.05 c -0.87,-3.49 -1.04,-4.18 -1.04,-4.32 0,-0.49 0.52,-0.49 0.66,-0.49 h 0.56 c 3.1,0.49 7.53,2.13 11.26,5.44 4.74,4.22 5.44,8.75 5.44,8.82 0,0.63 -0.49,1.12 -1.19,1.12 -1.22,0 -1.46,-0.98 -1.78,-1.95 -1.39,-4.96 -6.06,-10.29 -11.99,-12.04 z"
           inkscape:connector-curvature="0"
           style="fill:#000000;stroke-width:0" /><path
           id="path14556"
           d="m 959.49,334.04 v 0.03 0.03 l -0.01,0.01 v 0.02 0.01 l -0.01,0.02 v 0.02 l -0.01,0.01 -0.01,0.02 -0.01,0.02 -0.01,0.03 -0.01,0.02 -0.02,0.02 -0.02,0.03 -0.02,0.03 -0.02,0.03 -0.03,0.03 -0.03,0.04 -0.01,0.02 -0.02,0.02 -0.02,0.02 -0.02,0.02 -0.02,0.02 -0.02,0.03 -0.02,0.02 -0.02,0.02 -0.02,0.03 -0.03,0.02 -0.02,0.03 -0.03,0.03 -0.02,0.03 -0.03,0.03 -0.03,0.03 -0.03,0.03 -0.03,0.03 -0.03,0.03 -0.04,0.04 -0.03,0.03 -0.04,0.04 -0.03,0.03 -0.04,0.04 -0.04,0.04 c -6.23,6.28 -7.82,15.69 -7.82,23.31 0,8.67 1.9,17.34 8.02,23.57 0.65,0.59 0.65,0.69 0.65,0.84 0,0.35 -0.2,0.5 -0.5,0.5 -0.5,0 -4.98,-3.39 -7.92,-9.72 -2.54,-5.47 -3.14,-11 -3.14,-15.19 0,-3.88 0.55,-9.91 3.29,-15.54 2.99,-6.12 7.27,-9.36 7.77,-9.36 0.3,0 0.5,0.15 0.5,0.49 z"
           inkscape:connector-curvature="0"
           style="fill:#000000;stroke-width:0" /><path
           id="path14558"
           d="m 979.23,358.25 5.83,6.48 c 0.65,0.7 0.95,1.05 5.09,1.05 v 2.34 h -9.72 v -2.34 c 0.7,0 1.3,-0.1 1.89,-0.45 -0.2,-0.3 -0.2,-0.4 -0.39,-0.6 l -4.19,-4.68 -4.88,5.73 h 1.99 v 2.34 h -11.51 v -2.34 h 3.54 l 7.77,-9.17 -6.52,-7.32 c -0.85,-0.95 -2.64,-0.95 -5.03,-0.95 V 346 h 9.71 v 2.34 c -0.9,0 -1.84,0.25 -1.84,0.55 0,0.05 0,0.1 0.35,0.5 l 4.83,5.43 5.47,-6.48 h -1.94 V 346 h 11.46 v 2.34 h -3.54 z"
           inkscape:connector-curvature="0"
           style="fill:#000000;stroke-width:0" /><path
           id="path14560"
           d="m 1003.1,346.05 v 0.31 0.29 0.29 0.28 l -0.1,0.27 v 0.26 l -0.1,0.26 v 0.24 l -0.1,0.24 v 0.23 l -0.1,0.22 -0.1,0.21 -0.1,0.2 -0.1,0.19 -0.1,0.18 -0.1,0.18 -0.1,0.16 -0.1,0.15 -0.1,0.15 -0.1,0.13 -0.1,0.13 -0.2,0.11 -0.1,0.1 -0.2,0.1 -0.1,0.08 -0.2,0.07 -0.1,0.06 -0.2,0.05 -0.1,0.04 -0.2,0.03 -0.2,0.02 h -0.17 c -1.65,0 -2.65,-1.24 -2.65,-2.64 0,-1.34 1,-2.64 2.65,-2.64 0.57,0 1.27,0.2 1.77,0.65 0.1,0.1 0.2,0.15 0.2,0.15 0.1,0 0.1,-0.05 0.1,-0.75 0,-3.69 -1.7,-6.67 -3.37,-8.32 -0.55,-0.55 -0.55,-0.65 -0.55,-0.8 0,-0.34 0.25,-0.54 0.5,-0.54 0.55,0 4.52,3.83 4.52,9.66 z"
           inkscape:connector-curvature="0"
           style="fill:#000000;stroke-width:0" /><polygon
           id="polygon14562"
           points="1023.8,374.8 1024.7,373.9 1030.4,378.98 1036.2,373.9 1037.1,374.8 1030.4,381.57 "
           style="fill:#000000;stroke-width:0" /><path
           id="path14564"
           d="m 1020.7,363.73 v -15.39 h -3.5 V 346 h 12.6 v 2.34 h -3.4 v 10.41 c 0,5.43 4.2,7.87 7.4,7.87 1.7,0 2.7,-1.04 2.7,-4.83 v -13.45 h -3.4 V 346 h 12.5 v 2.34 h -3.4 v 12.9 c 0,5.23 -2.7,7.17 -7.7,7.17 -4.7,0 -7.4,-2.83 -8.7,-5.37 v 5.37 l -8.6,-0.39 v -2.34 c 3.1,0 3.5,0 3.5,-1.95 z"
           inkscape:connector-curvature="0"
           style="fill:#000000;stroke-width:0" /><path
           id="path14566"
           d="m 1060.4,358.45 v 0.37 0.39 0.39 0.41 l -0.1,0.84 v 0.88 l -0.1,0.92 -0.1,0.94 -0.2,0.98 -0.1,1 -0.2,1.02 -0.2,1.04 -0.3,1.05 -0.3,1.06 -0.4,1.06 -0.4,1.07 -0.2,0.53 -0.2,0.54 -0.2,0.53 -0.3,0.53 c -3,6.12 -7.3,9.36 -7.8,9.36 -0.3,0 -0.5,-0.2 -0.5,-0.5 0,-0.15 0,-0.25 1,-1.15 4.9,-4.92 7.7,-12.85 7.7,-23.26 0,-8.52 -1.8,-17.28 -8,-23.56 -0.7,-0.6 -0.7,-0.69 -0.7,-0.85 0,-0.29 0.2,-0.49 0.5,-0.49 0.5,0 5,3.38 8,9.71 2.5,5.48 3.1,11.01 3.1,15.19 z"
           inkscape:connector-curvature="0"
           style="fill:#000000;stroke-width:0" /><path
           id="path14568"
           d="m 1130.2,362.29 h 0.2 0.1 l 0.2,0.01 v 0 h 0.1 l 0.1,0.01 v 0.01 l 0.1,0.01 0.1,0.01 0.1,0.02 v 0.01 l 0.1,0.02 v 0.02 l 0.1,0.03 0.1,0.03 v 0.03 l 0.1,0.03 v 0.04 l 0.1,0.04 v 0.05 l 0.1,0.05 v 0.03 0.02 0.03 0.03 0.03 0.04 l 0.1,0.03 v 0.04 0.03 0.04 0.04 0.04 0.04 0.04 0.05 0.05 c 0,0.99 -0.9,0.99 -1.6,0.99 h -29.9 c -0.7,0 -1.6,0 -1.6,-0.99 0,-1 0.9,-1 1.7,-1 z"
           inkscape:connector-curvature="0"
           style="fill:#000000;stroke-width:0" /><path
           id="path14570"
           d="m 1130.3,352.62 0.1,0.01 h 0.1 0.2 l 0.1,0.01 v 0 l 0.1,0.01 0.1,0.01 v 0.01 l 0.1,0.01 0.1,0.01 v 0.02 l 0.1,0.02 0.1,0.02 v 0.02 l 0.1,0.03 v 0.03 l 0.1,0.04 v 0.04 l 0.1,0.04 v 0.04 0.03 l 0.1,0.03 v 0.02 0.03 0.03 0.03 0.03 0.03 l 0.1,0.04 v 0.03 0.04 0.04 0.04 0.04 0.04 0.04 0.05 0.04 c 0,1 -0.9,1 -1.7,1 h -29.7 c -0.8,0 -1.7,0 -1.7,-1 0,-1 0.9,-1 1.6,-1 z"
           inkscape:connector-curvature="0"
           style="fill:#000000;stroke-width:0" /><path
           id="path14572"
           d="m 1189.3,359.8 0.1,0.16 v 0.16 0.16 l 0.1,0.16 v 0.15 0.16 l 0.1,0.16 v 0.17 0.16 0.18 l 0.1,0.09 v 0.09 0.1 0.1 0.1 0.1 0.11 0.1 0.12 0.11 0.12 0.13 c 0,3.24 -2,5.33 -5.7,5.33 -4,0 -6.6,-2.59 -7.7,-4.34 -0.3,2.84 -2.4,4.34 -4.6,4.34 -2.3,0 -3.3,-1.95 -3.7,-2.84 -0.9,-1.7 -1.6,-4.68 -1.6,-4.83 0,-0.5 0.5,-0.5 0.6,-0.5 0.5,0 0.6,0.05 0.9,1.14 0.8,3.54 1.8,5.93 3.6,5.93 0.9,0 1.6,-0.4 1.6,-2.29 0,-1.04 -0.2,-1.59 -0.8,-4.18 l -2.9,-11.51 c -0.2,-0.75 -0.5,-1.89 -0.5,-2.14 0,-0.9 0.7,-1.35 1.5,-1.35 0.6,0 1.5,0.4 1.8,1.4 0.1,0.1 0.7,2.44 1,3.68 l 1.1,4.49 c 0.3,1.09 0.6,2.19 0.8,3.34 0.1,0.29 0.5,1.94 0.6,2.23 0.1,0.45 1.7,3.24 3.4,4.59 1,0.8 2.6,1.74 4.7,1.74 2.2,0 2.7,-1.69 2.7,-3.49 0,-0.25 0,-1.14 -0.5,-3.13 l -5.7,-22.92 c -0.1,-0.59 -0.1,-0.7 -0.1,-0.79 0,-0.75 0.5,-1.35 1.4,-1.35 1.5,0 1.9,1.44 2,1.99 z"
           inkscape:connector-curvature="0"
           style="fill:#000000;stroke-width:0" /><path
           id="path14574"
           d="m 1198.8,353.37 v 0.01 0.01 0.02 0.01 0.03 0.03 0.03 0.04 0.03 0.03 0.04 0.03 0.04 0.03 0.04 0.03 0.04 0.03 c 0,0.04 0,0.49 -0.5,0.49 -0.1,0 -2.1,-0.18 -2.3,-0.18 -0.7,-0.07 -1.3,-0.1 -2,-0.17 -0.5,-0.04 -0.9,-0.07 -0.9,-0.8 0,-0.49 0.5,-0.49 0.9,-0.49 1.7,0 1.7,-0.21 1.7,-0.53 0,-0.2 -0.2,-0.9 -0.4,-1.35 l -1.7,-7.05 c -0.9,-3.49 -1,-4.18 -1,-4.32 0,-0.49 0.5,-0.49 0.6,-0.49 h 0.6 c 3.1,0.49 7.5,2.13 11.2,5.44 4.8,4.22 5.5,8.75 5.5,8.82 0,0.63 -0.5,1.12 -1.2,1.12 -1.2,0 -1.5,-0.98 -1.8,-1.95 -1.4,-4.96 -6.1,-10.29 -12,-12.04 z"
           inkscape:connector-curvature="0"
           style="fill:#000000;stroke-width:0" /><path
           id="path14576"
           d="m 1231.5,334.04 v 0.03 0.03 0.01 0.02 0.01 0.02 0.02 0.01 0.02 l -0.1,0.02 v 0.03 0.02 0.02 0.03 0.03 l -0.1,0.03 v 0.03 0.04 0.02 l -0.1,0.02 v 0.02 0.02 0.02 0.03 0.02 l -0.1,0.02 v 0.03 0.02 0.03 l -0.1,0.03 v 0.03 0.03 0.03 l -0.1,0.03 v 0.03 0.03 l -0.1,0.04 v 0.03 0.04 l -0.1,0.03 v 0.04 l -0.1,0.04 c -6.2,6.28 -7.8,15.69 -7.8,23.31 0,8.67 1.9,17.34 8,23.57 0.7,0.59 0.7,0.69 0.7,0.84 0,0.35 -0.2,0.5 -0.5,0.5 -0.5,0 -5,-3.39 -7.9,-9.72 -2.6,-5.47 -3.2,-11 -3.2,-15.19 0,-3.88 0.6,-9.91 3.3,-15.54 3,-6.12 7.3,-9.36 7.8,-9.36 0.3,0 0.5,0.15 0.5,0.49 z"
           inkscape:connector-curvature="0"
           style="fill:#000000;stroke-width:0" /><path
           id="path14578"
           d="m 1251.2,358.25 5.9,6.48 c 0.6,0.7 0.9,1.05 5,1.05 v 2.34 h -9.7 v -2.34 c 0.7,0 1.3,-0.1 1.9,-0.45 -0.2,-0.3 -0.2,-0.4 -0.4,-0.6 l -4.2,-4.68 -4.8,5.73 h 1.9 v 2.34 h -11.5 v -2.34 h 3.6 l 7.8,-9.17 -6.6,-7.32 c -0.8,-0.95 -2.6,-0.95 -5,-0.95 V 346 h 9.7 v 2.34 c -0.9,0 -1.8,0.25 -1.8,0.55 0,0.05 0,0.1 0.3,0.5 l 4.9,5.43 5.4,-6.48 h -1.9 V 346 h 11.4 v 2.34 h -3.5 z"
           inkscape:connector-curvature="0"
           style="fill:#000000;stroke-width:0" /><path
           id="path14580"
           d="m 1275.1,346.05 v 0.31 0.29 0.29 0.28 l -0.1,0.27 v 0.26 l -0.1,0.26 v 0.24 l -0.1,0.24 v 0.23 l -0.1,0.22 -0.1,0.21 -0.1,0.2 -0.1,0.19 -0.1,0.18 -0.1,0.18 -0.1,0.16 -0.1,0.15 -0.1,0.15 -0.1,0.13 -0.1,0.13 -0.2,0.11 -0.1,0.1 -0.2,0.1 -0.1,0.08 -0.2,0.07 -0.1,0.06 -0.2,0.05 -0.1,0.04 -0.2,0.03 -0.2,0.02 h -0.2 c -1.6,0 -2.6,-1.24 -2.6,-2.64 0,-1.34 1,-2.64 2.6,-2.64 0.6,0 1.3,0.2 1.8,0.65 0.1,0.1 0.2,0.15 0.2,0.15 0.1,0 0.1,-0.05 0.1,-0.75 0,-3.69 -1.7,-6.67 -3.4,-8.32 -0.5,-0.55 -0.5,-0.65 -0.5,-0.8 0,-0.34 0.2,-0.54 0.5,-0.54 0.5,0 4.5,3.83 4.5,9.66 z"
           inkscape:connector-curvature="0"
           style="fill:#000000;stroke-width:0" /><polygon
           id="polygon14582"
           points="1295.8,374.8 1296.7,373.9 1302.4,378.98 1308.2,373.9 1309.1,374.8 1302.4,381.57 "
           style="fill:#000000;stroke-width:0" /><path
           id="path14584"
           d="m 1292.7,363.73 v -15.39 h -3.5 V 346 h 12.6 v 2.34 h -3.4 v 10.41 c 0,5.43 4.2,7.87 7.4,7.87 1.7,0 2.7,-1.04 2.7,-4.83 v -13.45 h -3.4 V 346 h 12.5 v 2.34 h -3.4 v 12.9 c 0,5.23 -2.7,7.17 -7.7,7.17 -4.7,0 -7.4,-2.83 -8.7,-5.37 v 5.37 l -8.6,-0.39 v -2.34 c 3.1,0 3.5,0 3.5,-1.95 z"
           inkscape:connector-curvature="0"
           style="fill:#000000;stroke-width:0" /><path
           id="path14586"
           d="m 1333.4,358.45 v 0.37 0.39 0.39 0.41 l -0.1,0.84 v 0.88 l -0.1,0.92 -0.1,0.94 -0.2,0.98 -0.1,1 -0.2,1.02 -0.2,1.04 -0.3,1.05 -0.3,1.06 -0.4,1.06 -0.4,1.07 -0.2,0.53 -0.2,0.54 -0.2,0.53 -0.3,0.53 c -3,6.12 -7.3,9.36 -7.8,9.36 -0.3,0 -0.5,-0.2 -0.5,-0.5 0,-0.15 0,-0.25 1,-1.15 4.9,-4.92 7.7,-12.85 7.7,-23.26 0,-8.52 -1.8,-17.28 -8,-23.56 -0.7,-0.6 -0.7,-0.69 -0.7,-0.85 0,-0.29 0.2,-0.49 0.5,-0.49 0.5,0 5,3.38 8,9.71 2.5,5.48 3.1,11.01 3.1,15.19 z"
           inkscape:connector-curvature="0"
           style="fill:#000000;stroke-width:0" /><path
           id="path14588"
           d="m 1381.8,357.46 h 0.2 0.1 0.2 l 0.1,0.01 h 0.1 v 0.01 l 0.1,0.01 0.1,0.01 v 0.01 l 0.1,0.01 0.1,0.02 0.1,0.02 v 0.02 l 0.1,0.03 v 0.02 l 0.1,0.04 v 0.03 l 0.1,0.04 v 0.04 l 0.1,0.05 v 0.05 0.02 l 0.1,0.03 v 0.03 0.03 0.03 0.04 0.03 0.03 0.04 0.04 l 0.1,0.04 v 0.04 0.04 0.04 0.05 0.04 c 0,1 -0.9,1 -1.8,1 h -26.9 c -0.9,0 -1.8,0 -1.8,-1 0,-0.99 0.9,-0.99 1.8,-0.99 z"
           inkscape:connector-curvature="0"
           style="fill:#000000;stroke-width:0" /><path
           id="path14590"
           d="m 1428,366.07 0.1,0.03 v 0.02 0.03 0.02 l 0.1,0.02 v 0.03 0.02 0.02 0.02 l 0.1,0.02 v 0.02 0.02 0.02 0.01 0.02 l 0.1,0.02 v 0.01 0.02 0.02 0.01 0.03 l 0.1,0.03 v 0.02 0.03 0.02 0.02 0.02 0.02 l 0.1,0.02 v 0.02 0.01 0.02 0.02 0.01 0.02 0.01 0.03 0.02 0.03 c 0,0.3 -0.2,0.6 -0.6,0.6 -0.3,0 -0.5,-0.25 -0.8,-0.6 l -11.4,-12.7 c -2,6.33 -2.4,7.57 -3.6,10.21 -0.5,1.15 -1.6,3.64 -6,3.64 -2.9,0 -4.2,-2.59 -4.2,-3.29 0,-0.05 0,-0.5 0.6,-0.5 0.5,0 0.6,0.3 0.7,0.55 0.7,1.94 2.3,2.14 2.6,2.14 1.5,0 3,-3.78 3.9,-5.97 1.6,-3.94 3.1,-9.72 3.1,-9.87 0,-0.05 0,-0.15 -0.3,-0.55 l -11.5,-12.8 c -0.6,-0.55 -0.6,-0.65 -0.6,-0.8 0,-0.29 0.3,-0.59 0.6,-0.59 0.4,0 0.6,0.34 0.8,0.54 l 11.4,12.81 c 1.6,-5.19 2.2,-7.13 3.4,-9.92 0.7,-1.49 1.8,-3.98 6.2,-3.98 2.9,0 4.2,2.59 4.2,3.24 0,0.24 -0.1,0.54 -0.5,0.54 -0.5,0 -0.6,-0.19 -0.8,-0.69 -0.4,-1.2 -1.6,-2 -2.6,-2 -2.5,0 -5.9,12.06 -7,15.89 z"
           inkscape:connector-curvature="0"
           style="fill:#000000;stroke-width:0" /><path
           id="path14592"
           d="m 1438.8,353.37 v 0.01 0.01 0.02 0.01 0.03 0.03 0.03 0.04 0.03 0.03 0.04 0.03 0.04 0.03 0.04 0.03 0.04 0.03 c 0,0.04 0,0.49 -0.5,0.49 -0.1,0 -2.1,-0.18 -2.3,-0.18 -0.7,-0.07 -1.3,-0.1 -2,-0.17 -0.5,-0.04 -0.9,-0.07 -0.9,-0.8 0,-0.49 0.5,-0.49 0.9,-0.49 1.7,0 1.7,-0.21 1.7,-0.53 0,-0.2 -0.2,-0.9 -0.4,-1.35 l -1.7,-7.05 c -0.9,-3.49 -1,-4.18 -1,-4.32 0,-0.49 0.5,-0.49 0.6,-0.49 h 0.6 c 3.1,0.49 7.5,2.13 11.2,5.44 4.8,4.22 5.5,8.75 5.5,8.82 0,0.63 -0.5,1.12 -1.2,1.12 -1.2,0 -1.5,-0.98 -1.8,-1.95 -1.4,-4.96 -6.1,-10.29 -12,-12.04 z"
           inkscape:connector-curvature="0"
           style="fill:#000000;stroke-width:0" /><path
           id="path14594"
           d="m 1471.5,334.04 v 0.03 0.03 0.01 0.02 0.01 0.02 0.02 0.01 0.02 l -0.1,0.02 v 0.03 0.02 0.02 0.03 0.03 l -0.1,0.03 v 0.03 0.04 0.02 l -0.1,0.02 v 0.02 0.02 0.02 0.03 0.02 l -0.1,0.02 v 0.03 0.02 0.03 l -0.1,0.03 v 0.03 0.03 0.03 l -0.1,0.03 v 0.03 0.03 l -0.1,0.04 v 0.03 0.04 l -0.1,0.03 v 0.04 l -0.1,0.04 c -6.2,6.28 -7.8,15.69 -7.8,23.31 0,8.67 1.9,17.34 8,23.57 0.7,0.59 0.7,0.69 0.7,0.84 0,0.35 -0.2,0.5 -0.5,0.5 -0.5,0 -5,-3.39 -7.9,-9.72 -2.6,-5.47 -3.2,-11 -3.2,-15.19 0,-3.88 0.6,-9.91 3.3,-15.54 3,-6.12 7.3,-9.36 7.8,-9.36 0.3,0 0.5,0.15 0.5,0.49 z"
           inkscape:connector-curvature="0"
           style="fill:#000000;stroke-width:0" /><path
           id="path14596"
           d="m 1491.2,358.25 5.9,6.48 c 0.6,0.7 0.9,1.05 5,1.05 v 2.34 h -9.7 v -2.34 c 0.7,0 1.3,-0.1 1.9,-0.45 -0.2,-0.3 -0.2,-0.4 -0.4,-0.6 l -4.2,-4.68 -4.8,5.73 h 1.9 v 2.34 h -11.5 v -2.34 h 3.6 l 7.8,-9.17 -6.6,-7.32 c -0.8,-0.95 -2.6,-0.95 -5,-0.95 V 346 h 9.7 v 2.34 c -0.9,0 -1.8,0.25 -1.8,0.55 0,0.05 0,0.1 0.3,0.5 l 4.9,5.43 5.4,-6.48 h -1.9 V 346 h 11.4 v 2.34 h -3.5 z"
           inkscape:connector-curvature="0"
           style="fill:#000000;stroke-width:0" /><path
           id="path14598"
           d="m 1518.4,358.45 v 0.37 0.39 0.39 0.41 l -0.1,0.84 v 0.88 l -0.1,0.92 -0.1,0.94 -0.2,0.98 -0.1,1 -0.2,1.02 -0.2,1.04 -0.3,1.05 -0.3,1.06 -0.4,1.06 -0.4,1.07 -0.2,0.53 -0.2,0.54 -0.2,0.53 -0.3,0.53 c -3,6.12 -7.3,9.36 -7.8,9.36 -0.3,0 -0.5,-0.2 -0.5,-0.5 0,-0.15 0,-0.25 1,-1.15 4.9,-4.92 7.7,-12.85 7.7,-23.26 0,-8.52 -1.8,-17.28 -8,-23.56 -0.7,-0.6 -0.7,-0.69 -0.7,-0.85 0,-0.29 0.2,-0.49 0.5,-0.49 0.5,0 5,3.38 8,9.71 2.5,5.48 3.1,11.01 3.1,15.19 z"
           inkscape:connector-curvature="0"
           style="fill:#000000;stroke-width:0" /><path
           id="path14600"
           d="m 1542.6,376.19 0.1,0.16 v 0.16 l 0.1,0.15 v 0.14 0.14 l 0.1,0.12 v 0.13 l 0.1,0.11 v 0.11 l 0.1,0.1 0.1,0.1 v 0.09 l 0.1,0.08 0.1,0.08 0.1,0.08 0.1,0.06 0.1,0.07 0.1,0.05 0.2,0.06 0.1,0.05 0.2,0.04 0.1,0.02 0.1,0.02 0.1,0.01 0.1,0.02 0.1,0.02 0.1,0.01 0.1,0.01 0.1,0.02 0.1,0.01 0.1,0.01 0.1,0.01 0.2,0.01 0.1,0.01 h 0.2 l 0.1,0.01 h 0.2 l 0.1,0.01 h 0.2 0.1 l 0.2,0.01 h 0.2 0.2 c 1.2,0 1.6,0 1.6,0.95 0,0.59 -0.6,0.59 -0.8,0.59 h -13.2 c -0.3,0 -1,0 -1,-0.99 0,-0.55 0.5,-0.55 1.4,-0.55 2.1,0 3.4,0 3.4,-0.95 0,-0.25 0,-0.35 0,-0.8 l -6.8,-26.84 c -0.4,-1.85 -0.6,-2.35 -4.5,-2.35 -1.2,0 -1.6,0 -1.6,-0.99 0,-0.55 0.6,-0.55 0.7,-0.55 h 13.2 c 0.4,0 1,0 1,0.95 0,0.59 -0.4,0.59 -1.5,0.59 -0.9,0 -1.1,0 -2.1,0.1 -1,0.1 -1.2,0.3 -1.2,0.85 0,0.4 0.1,0.8 0.2,1.15 z"
           inkscape:connector-curvature="0"
           style="fill:#000000;stroke-width:0" /><path
           id="path14602"
           d="m 1553.8,353.37 v 0.01 0.01 0.02 0.01 0.03 0.03 0.03 0.04 0.03 0.03 0.04 0.03 0.04 0.03 0.04 0.03 0.04 0.03 c 0,0.04 0,0.49 -0.5,0.49 -0.1,0 -2.1,-0.18 -2.3,-0.18 -0.7,-0.07 -1.3,-0.1 -2,-0.17 -0.5,-0.04 -0.9,-0.07 -0.9,-0.8 0,-0.49 0.5,-0.49 0.9,-0.49 1.7,0 1.7,-0.21 1.7,-0.53 0,-0.2 -0.2,-0.9 -0.4,-1.35 l -1.7,-7.05 c -0.9,-3.49 -1,-4.18 -1,-4.32 0,-0.49 0.5,-0.49 0.6,-0.49 h 0.6 c 3.1,0.49 7.5,2.13 11.2,5.44 4.8,4.22 5.5,8.75 5.5,8.82 0,0.63 -0.5,1.12 -1.2,1.12 -1.2,0 -1.5,-0.98 -1.8,-1.95 -1.4,-4.96 -6.1,-10.29 -12,-12.04 z"
           inkscape:connector-curvature="0"
           style="fill:#000000;stroke-width:0" /><path
           id="path14604"
           d="m 1586.5,334.04 v 0.03 0.03 0.01 0.02 0.01 0.02 0.02 0.01 0.02 l -0.1,0.02 v 0.03 0.02 0.02 0.03 0.03 l -0.1,0.03 v 0.03 0.04 0.02 l -0.1,0.02 v 0.02 0.02 0.02 0.03 0.02 l -0.1,0.02 v 0.03 0.02 0.03 l -0.1,0.03 v 0.03 0.03 0.03 l -0.1,0.03 v 0.03 0.03 l -0.1,0.04 v 0.03 0.04 l -0.1,0.03 v 0.04 l -0.1,0.04 c -6.2,6.28 -7.8,15.69 -7.8,23.31 0,8.67 1.9,17.34 8,23.57 0.7,0.59 0.7,0.69 0.7,0.84 0,0.35 -0.2,0.5 -0.5,0.5 -0.5,0 -5,-3.39 -7.9,-9.72 -2.6,-5.47 -3.2,-11 -3.2,-15.19 0,-3.88 0.6,-9.91 3.3,-15.54 3,-6.12 7.3,-9.36 7.8,-9.36 0.3,0 0.5,0.15 0.5,0.49 z"
           inkscape:connector-curvature="0"
           style="fill:#000000;stroke-width:0" /><path
           id="path14606"
           d="m 1607.2,358.25 5.9,6.48 c 0.6,0.7 0.9,1.05 5,1.05 v 2.34 h -9.7 v -2.34 c 0.7,0 1.3,-0.1 1.9,-0.45 -0.2,-0.3 -0.2,-0.4 -0.4,-0.6 l -4.2,-4.68 -4.8,5.73 h 1.9 v 2.34 h -11.5 v -2.34 h 3.6 l 7.8,-9.17 -6.6,-7.32 c -0.8,-0.95 -2.6,-0.95 -5,-0.95 V 346 h 9.7 v 2.34 c -0.9,0 -1.8,0.25 -1.8,0.55 0,0.05 0,0.1 0.3,0.5 l 4.9,5.43 5.4,-6.48 h -1.9 V 346 h 11.4 v 2.34 h -3.5 z"
           inkscape:connector-curvature="0"
           style="fill:#000000;stroke-width:0" /><path
           id="path14608"
           d="m 1630.1,346.05 v 0.31 0.29 0.29 0.28 l -0.1,0.27 v 0.26 l -0.1,0.26 v 0.24 l -0.1,0.24 v 0.23 l -0.1,0.22 -0.1,0.21 -0.1,0.2 -0.1,0.19 -0.1,0.18 -0.1,0.18 -0.1,0.16 -0.1,0.15 -0.1,0.15 -0.1,0.13 -0.1,0.13 -0.2,0.11 -0.1,0.1 -0.2,0.1 -0.1,0.08 -0.2,0.07 -0.1,0.06 -0.2,0.05 -0.1,0.04 -0.2,0.03 -0.2,0.02 h -0.2 c -1.6,0 -2.6,-1.24 -2.6,-2.64 0,-1.34 1,-2.64 2.6,-2.64 0.6,0 1.3,0.2 1.8,0.65 0.1,0.1 0.2,0.15 0.2,0.15 0.1,0 0.1,-0.05 0.1,-0.75 0,-3.69 -1.7,-6.67 -3.4,-8.32 -0.5,-0.55 -0.5,-0.65 -0.5,-0.8 0,-0.34 0.2,-0.54 0.5,-0.54 0.5,0 4.5,3.83 4.5,9.66 z"
           inkscape:connector-curvature="0"
           style="fill:#000000;stroke-width:0" /><polygon
           id="polygon14610"
           points="1651.8,374.8 1652.7,373.9 1658.4,378.98 1664.2,373.9 1665.1,374.8 1658.4,381.57 "
           style="fill:#000000;stroke-width:0" /><path
           id="path14612"
           d="m 1647.7,363.73 v -15.39 h -3.5 V 346 h 12.6 v 2.34 h -3.4 v 10.41 c 0,5.43 4.2,7.87 7.4,7.87 1.7,0 2.7,-1.04 2.7,-4.83 v -13.45 h -3.4 V 346 h 12.5 v 2.34 h -3.4 v 12.9 c 0,5.23 -2.7,7.17 -7.7,7.17 -4.7,0 -7.4,-2.83 -8.7,-5.37 v 5.37 l -8.6,-0.39 v -2.34 c 3.1,0 3.5,0 3.5,-1.95 z"
           inkscape:connector-curvature="0"
           style="fill:#000000;stroke-width:0" /><path
           id="path14614"
           d="m 1688.4,358.45 v 0.37 0.39 0.39 0.41 l -0.1,0.84 v 0.88 l -0.1,0.92 -0.1,0.94 -0.2,0.98 -0.1,1 -0.2,1.02 -0.2,1.04 -0.3,1.05 -0.3,1.06 -0.4,1.06 -0.4,1.07 -0.2,0.53 -0.2,0.54 -0.2,0.53 -0.3,0.53 c -3,6.12 -7.3,9.36 -7.8,9.36 -0.3,0 -0.5,-0.2 -0.5,-0.5 0,-0.15 0,-0.25 1,-1.15 4.9,-4.92 7.7,-12.85 7.7,-23.26 0,-8.52 -1.8,-17.28 -8,-23.56 -0.7,-0.6 -0.7,-0.69 -0.7,-0.85 0,-0.29 0.2,-0.49 0.5,-0.49 0.5,0 5,3.38 8,9.71 2.5,5.48 3.1,11.01 3.1,15.19 z"
           inkscape:connector-curvature="0"
           style="fill:#000000;stroke-width:0" /></g>    </g>
  </g>
</svg>
